M48
; DRILL file {KiCad 7.0.7} date Wed Oct 18 15:04:23 2023
; FORMAT={-:-/ absolute / inch / decimal}
; #@! TF.CreationDate,2023-10-18T15:04:23+01:00
; #@! TF.GenerationSoftware,Kicad,Pcbnew,7.0.7
; #@! TF.FileFunction,Plated,1,4,PTH
FMAT,2
INCH
; #@! TA.AperFunction,Plated,PTH,ViaDrill
T1C0.0079
; #@! TA.AperFunction,Plated,PTH,ViaDrill
T2C0.0098
; #@! TA.AperFunction,Plated,PTH,ComponentDrill
T3C0.0295
; #@! TA.AperFunction,Plated,PTH,ComponentDrill
T4C0.0315
; #@! TA.AperFunction,Plated,PTH,ComponentDrill
T5C0.0394
; #@! TA.AperFunction,Plated,PTH,ViaDrill
T6C0.0433
%
G90
G05
T1
X1.7283Y0.626
X2.0276Y3.2331
X2.2047Y2.9055
X2.2047Y2.7835
X2.2362Y2.9843
X2.3307Y4.0827
X3.1388Y1.252
X3.1594Y1.1299
X3.4764Y3.7884
X3.5531Y3.7904
X4.0236Y4.0354
X4.2283Y1.0236
X4.25Y0.9685
X4.2717Y1.0866
X4.3189Y3.0354
X4.3189Y2.7618
X4.3435Y1.7638
X4.3435Y1.2126
X4.6142Y1.0236
X4.6142Y0.7622
X4.6339Y0.6622
X4.6348Y1.0
X4.6535Y0.5622
X4.6772Y1.0866
X4.6929Y2.7126
T2
X0.6732Y1.4555
X0.685Y3.0374
X0.7087Y3.1339
X0.7087Y2.5039
X0.7217Y1.4555
X0.7323Y2.7362
X0.7323Y1.6575
X0.7559Y3.3228
X0.7559Y1.5039
X0.7559Y1.2559
X0.7795Y2.9331
X0.7795Y1.7047
X0.7835Y1.6063
X0.7835Y1.2559
X0.878Y3.4803
X0.878Y2.4567
X0.9016Y3.4567
X0.9016Y3.3071
X0.9016Y2.2559
X0.9252Y3.6673
X0.9252Y3.4331
X0.9252Y2.3543
X0.9488Y3.6331
X0.9488Y2.5551
X0.9724Y4.0315
X0.9724Y2.2559
X0.9961Y3.7331
X0.9961Y2.5555
X1.0197Y3.8331
X1.0197Y3.5827
X1.0197Y2.4547
X1.0433Y3.9331
X1.0433Y3.2835
X1.0433Y2.3563
X1.0689Y4.2835
X1.0689Y2.6811
X1.0689Y2.0118
X1.0906Y3.9823
X1.0906Y1.6575
X1.1083Y4.2835
X1.1083Y4.0827
X1.1142Y3.8819
X1.1142Y1.5551
X1.1378Y4.2331
X1.1378Y2.8819
X1.1378Y2.5039
X1.1378Y1.3543
X1.563Y3.685
X1.563Y3.4331
X1.5866Y4.0354
X1.5866Y3.5827
X1.5866Y3.3819
X1.6102Y3.9331
X1.6102Y3.7854
X1.6102Y3.2835
X1.6339Y3.8331
X1.6339Y3.4843
X1.6555Y4.0354
X1.6555Y3.3331
X1.6811Y3.437
X1.6811Y3.2323
X1.7165Y3.7323
X1.7165Y3.5827
X1.7185Y3.5157
X1.7185Y3.3307
X1.748Y3.5374
X1.748Y3.315
X1.7736Y4.185
X1.7736Y2.6811
X1.8937Y4.2323
X1.8937Y3.0827
X1.9173Y4.7323
X1.9173Y2.8331
X1.937Y3.8819
X1.937Y3.6339
X1.9606Y4.5331
X1.9606Y4.185
X1.9606Y3.9843
X1.9606Y3.7331
X1.9902Y2.7343
X1.9921Y4.6496
X1.9921Y4.3331
X1.9921Y3.9843
X1.9961Y3.5157
X2.0157Y3.437
X2.0197Y3.315
X2.0256Y3.8819
X2.1535Y4.4331
X2.1535Y4.2835
X2.1654Y3.3333
X2.1732Y3.4331
X2.1811Y4.6299
X2.1811Y4.3819
X2.2047Y3.5333
X2.252Y1.5315
X2.2835Y2.8331
X2.2835Y1.5394
X2.5906Y4.3333
X2.5906Y2.8386
X2.8898Y3.9843
X3.0531Y3.8799
X3.0906Y3.7835
X3.126Y4.0335
X3.2756Y3.0394
X3.374Y3.0512
X3.5555Y3.0512
X3.5768Y3.1614
X3.7449Y1.2244
X3.8228Y3.1181
X3.9268Y4.6811
X3.9567Y3.7323
X3.9567Y3.0906
X4.2244Y3.6285
X4.2244Y2.1614
X4.2283Y1.8622
X4.248Y3.7335
X4.248Y2.2638
X4.25Y1.9606
X4.2717Y3.9823
X4.2717Y2.563
X4.2717Y2.063
X4.2953Y2.9606
X4.2953Y2.6102
X4.3228Y2.6614
X4.3228Y1.1102
X4.4331Y2.4094
X4.4331Y1.6614
X4.4567Y3.5079
X4.4567Y2.3622
X4.4567Y2.311
X4.4567Y1.5618
X4.4606Y1.2126
X4.4803Y2.9618
X4.4803Y2.5118
X4.4803Y2.2087
X4.4803Y1.4606
X4.5039Y4.7323
X4.5039Y2.563
X4.5039Y2.1102
X4.5039Y1.3622
X4.5197Y1.1102
X4.5197Y0.7622
X4.5236Y0.6102
X4.5276Y3.6335
X4.5276Y1.6614
X4.5433Y0.9764
X4.5433Y0.6614
X4.5472Y0.5118
X4.5512Y3.5354
X4.5512Y1.7618
X4.5649Y0.9488
X4.5649Y0.563
X4.5748Y3.4335
X4.5748Y1.8622
X4.5748Y1.811
X4.5748Y1.0618
X4.5906Y0.811
X4.5906Y0.4622
X4.5984Y3.3327
X4.5984Y1.9618
X4.5984Y1.9134
X4.5984Y1.1614
X4.622Y3.2285
X4.622Y2.063
X4.622Y2.0118
X4.622Y1.2618
X4.6457Y3.2835
X4.6457Y2.1614
X4.6496Y1.6181
X4.6496Y1.063
X4.6693Y3.3819
X4.6693Y2.2618
X4.6792Y1.5118
X4.6792Y1.1614
X4.7008Y1.7126
X4.7008Y1.4606
X4.7008Y1.4134
X4.7008Y1.2638
X4.8307Y2.8622
X4.937Y4.0413
X5.0492Y4.6831
X5.126Y3.7323
X5.126Y3.1614
X5.5709Y4.7331
X5.5709Y4.4331
T3
X2.9685Y1.622
X2.9685Y1.572
X2.9685Y1.522
T4
X0.4173Y0.4764
X0.4614Y1.0197
X0.4614Y0.9016
X0.4614Y0.6575
X0.4803Y1.4571
X0.4803Y1.1571
X0.4929Y0.2795
X0.4929Y0.1575
X0.5157Y0.4764
X0.563Y0.7795
X0.6004Y4.6331
X0.6004Y4.5331
X0.6004Y4.4331
X0.6004Y4.3331
X0.6004Y4.2331
X0.6004Y4.1331
X0.6004Y4.0331
X0.6004Y3.9331
X0.6004Y3.8331
X0.6004Y3.7331
X0.6004Y3.6331
X0.6004Y3.5331
X0.6004Y3.4331
X0.6004Y3.3331
X0.6004Y3.2331
X0.6004Y3.1331
X0.6004Y3.0331
X0.6004Y2.9331
X0.6004Y2.8331
X0.6004Y2.7331
X0.6004Y2.5555
X0.6004Y2.4555
X0.6004Y2.3555
X0.6004Y2.2555
X0.6004Y2.1555
X0.6004Y2.0555
X0.6004Y1.9555
X0.6004Y1.8555
X0.6004Y1.7555
X0.6004Y1.6555
X0.6004Y1.5555
X0.6004Y1.4555
X0.6004Y1.3555
X0.6004Y1.2555
X0.6339Y0.4764
X0.7598Y0.7795
X0.8307Y0.4764
X0.8614Y1.0197
X0.8614Y0.9016
X0.8614Y0.6575
X0.8929Y0.2795
X0.8929Y0.1575
X1.2004Y4.6331
X1.2004Y4.5331
X1.2004Y4.4331
X1.2004Y4.3331
X1.2004Y4.2331
X1.2004Y4.1331
X1.2004Y4.0331
X1.2004Y3.9331
X1.2004Y3.8331
X1.2004Y3.7331
X1.2004Y3.6331
X1.2004Y3.5331
X1.2004Y3.4331
X1.2004Y3.3331
X1.2004Y3.2331
X1.2004Y3.1331
X1.2004Y3.0331
X1.2004Y2.9331
X1.2004Y2.8331
X1.2004Y2.7331
X1.2004Y2.5555
X1.2004Y2.4555
X1.2004Y2.3555
X1.2004Y2.2555
X1.2004Y2.1555
X1.2004Y2.0555
X1.2004Y1.9555
X1.2004Y1.8555
X1.2004Y1.7555
X1.2004Y1.6555
X1.2004Y1.5555
X1.2004Y1.4555
X1.2004Y1.3555
X1.2004Y1.2555
X1.2008Y0.7766
X1.2008Y0.6766
X1.2008Y0.5766
X1.2008Y0.4766
X1.2008Y0.3766
X1.2008Y0.2766
X1.2008Y0.1766
X1.4961Y4.6331
X1.4961Y4.5331
X1.4961Y4.4331
X1.4961Y4.3331
X1.4961Y4.2331
X1.4961Y4.1331
X1.4961Y4.0331
X1.4961Y3.9331
X1.4961Y3.8331
X1.4961Y3.7331
X1.4961Y3.6331
X1.4961Y3.5331
X1.4961Y3.4331
X1.4961Y3.3331
X1.4961Y3.2331
X1.4961Y3.1331
X1.4961Y3.0331
X1.4961Y2.9331
X1.4961Y2.8331
X1.4961Y2.7331
X1.5008Y0.7766
X1.5008Y0.6766
X1.5008Y0.5766
X1.5008Y0.4766
X1.5008Y0.3766
X1.5008Y0.2766
X1.5008Y0.1766
X1.6898Y0.4606
X1.6898Y0.3425
X1.6898Y0.122
X1.7244Y1.6575
X1.7398Y0.2323
X1.7705Y1.4173
X1.7705Y1.2992
X1.7705Y1.1811
X1.7787Y0.8858
X1.7787Y0.7858
X1.7787Y0.6858
X1.7787Y0.5858
X1.826Y1.5394
X1.8358Y1.8937
X1.8358Y1.7756
X1.874Y2.0748
X1.8821Y2.4724
X1.9805Y2.4724
X2.0228Y1.5394
X2.0327Y1.8937
X2.0327Y1.7756
X2.0398Y0.2323
X2.0661Y2.0748
X2.0705Y1.4173
X2.0705Y1.2992
X2.0705Y1.1811
X2.0787Y0.8858
X2.0787Y0.7858
X2.0787Y0.6858
X2.0787Y0.5858
X2.0898Y0.4606
X2.0898Y0.3425
X2.0898Y0.122
X2.0961Y4.6331
X2.0961Y4.5331
X2.0961Y4.4331
X2.0961Y4.3331
X2.0961Y4.2331
X2.0961Y4.1331
X2.0961Y4.0331
X2.0961Y3.9331
X2.0961Y3.8331
X2.0961Y3.7331
X2.0961Y3.6331
X2.0961Y3.5331
X2.0961Y3.4331
X2.0961Y3.3331
X2.0961Y3.2331
X2.0961Y3.1331
X2.0961Y3.0331
X2.0961Y2.9331
X2.0961Y2.8331
X2.0961Y2.7331
X2.1244Y1.6575
X2.165Y2.4724
X2.2362Y0.937
X2.2362Y0.4646
X2.2362Y0.2244
X2.2362Y0.1063
X2.3378Y0.8189
X2.3378Y0.7008
X2.3378Y0.5827
X2.3378Y0.3425
X2.3736Y1.6693
X2.3815Y1.4803
X2.3819Y1.7874
X2.3882Y2.9772
X2.3882Y2.6772
X2.3898Y4.5333
X2.3898Y4.4333
X2.3898Y4.3333
X2.3898Y4.2333
X2.3898Y4.1333
X2.3898Y4.0333
X2.3898Y3.9333
X2.3898Y3.8333
X2.3898Y3.7333
X2.3898Y3.6333
X2.3898Y3.5333
X2.3898Y3.4333
X2.3898Y3.3333
X2.3898Y3.2333
X2.3898Y2.2441
X2.3898Y1.9441
X2.3898Y1.3622
X2.3898Y1.0622
X2.465Y2.4724
X2.4685Y3.0827
X2.4882Y2.9772
X2.4882Y2.6772
X2.4898Y2.2441
X2.4898Y1.9441
X2.4898Y1.3622
X2.4898Y1.0622
X2.5346Y0.8189
X2.5346Y0.7008
X2.5346Y0.5827
X2.5346Y0.3425
X2.5362Y0.2244
X2.5362Y0.1063
X2.5787Y1.7874
X2.5882Y2.9772
X2.5882Y2.6772
X2.5898Y2.2441
X2.5898Y1.9441
X2.5898Y1.3622
X2.5898Y1.0622
X2.6362Y0.937
X2.6362Y0.4646
X2.6654Y3.0827
X2.6736Y1.6693
X2.6815Y1.4803
X2.6882Y2.9772
X2.6882Y2.6772
X2.6898Y2.2441
X2.6898Y1.9441
X2.6898Y1.3622
X2.6898Y1.0622
X2.7882Y2.9772
X2.7882Y2.6772
X2.7898Y2.2441
X2.7898Y1.9441
X2.7898Y1.3622
X2.7898Y1.0622
X2.8882Y2.9772
X2.8882Y2.6772
X2.8898Y2.2441
X2.8898Y1.9441
X2.8898Y1.3622
X2.8898Y1.0622
X2.9283Y0.8642
X2.9283Y0.7642
X2.9283Y0.6642
X2.9283Y0.5642
X2.9283Y0.4642
X2.9283Y0.3642
X2.9283Y0.2642
X2.9283Y0.1642
X2.9882Y2.9772
X2.9882Y2.6772
X2.9898Y4.5333
X2.9898Y4.4333
X2.9898Y4.3333
X2.9898Y4.2333
X2.9898Y4.1333
X2.9898Y4.0333
X2.9898Y3.9333
X2.9898Y3.8333
X2.9898Y3.7333
X2.9898Y3.6333
X2.9898Y3.5333
X2.9898Y3.4333
X2.9898Y3.3333
X2.9898Y3.2333
X2.9898Y2.2441
X2.9898Y1.9441
X2.9898Y1.3622
X2.9898Y1.0622
X3.0882Y2.9772
X3.0882Y2.6772
X3.1768Y2.0039
X3.2244Y2.4094
X3.2244Y2.1094
X3.2248Y2.9772
X3.2248Y2.6772
X3.2283Y0.8642
X3.2283Y0.7642
X3.2283Y0.6642
X3.2283Y0.5642
X3.2283Y0.4642
X3.2283Y0.3642
X3.2283Y0.2642
X3.2283Y0.1642
X3.2441Y1.8996
X3.2441Y1.5996
X3.2449Y1.3583
X3.2449Y1.0583
X3.2657Y4.5333
X3.2657Y4.4333
X3.2657Y4.3333
X3.2657Y4.2333
X3.2657Y4.1333
X3.2657Y4.0333
X3.2657Y3.9333
X3.2657Y3.8333
X3.2657Y3.7333
X3.2657Y3.6333
X3.2657Y3.5333
X3.2657Y3.4333
X3.2657Y3.3333
X3.2657Y3.2333
X3.3244Y2.4094
X3.3244Y2.1094
X3.3248Y2.9772
X3.3248Y2.6772
X3.3441Y1.8996
X3.3441Y1.5996
X3.3449Y1.3583
X3.3449Y1.0583
X3.4244Y2.4094
X3.4244Y2.1094
X3.4248Y2.9772
X3.4248Y2.6772
X3.4441Y1.8996
X3.4441Y1.5996
X3.4449Y1.3583
X3.4449Y1.0583
X3.4768Y2.0039
X3.5244Y2.4094
X3.5244Y2.1094
X3.5248Y2.9772
X3.5248Y2.6772
X3.5441Y1.8996
X3.5441Y1.5996
X3.5449Y1.3583
X3.5449Y1.0583
X3.6244Y2.4094
X3.6244Y2.1094
X3.6248Y2.9772
X3.6248Y2.6772
X3.6441Y1.8996
X3.6441Y1.5996
X3.6449Y1.3583
X3.6449Y1.0583
X3.7244Y2.4094
X3.7244Y2.1094
X3.7248Y2.9772
X3.7248Y2.6772
X3.7441Y1.8996
X3.7441Y1.5996
X3.7449Y1.3583
X3.7449Y1.0583
X3.8244Y2.4094
X3.8244Y2.1094
X3.8248Y2.9772
X3.8248Y2.6772
X3.8441Y1.8996
X3.8441Y1.5996
X3.8449Y1.3583
X3.8449Y1.0583
X3.8657Y4.5333
X3.8657Y4.4333
X3.8657Y4.3333
X3.8657Y4.2333
X3.8657Y4.1333
X3.8657Y4.0333
X3.8657Y3.9333
X3.8657Y3.8333
X3.8657Y3.7333
X3.8657Y3.6333
X3.8657Y3.5333
X3.8657Y3.4333
X3.8657Y3.3333
X3.8657Y3.2333
X3.9248Y2.9772
X3.9248Y2.6772
X3.9441Y1.8996
X3.9441Y1.5996
X3.9449Y1.3583
X3.9449Y1.0583
X4.1634Y2.9618
X4.1634Y2.8618
X4.1634Y2.7618
X4.1634Y2.6618
X4.1634Y2.5618
X4.1634Y2.4618
X4.1634Y2.3618
X4.1634Y2.2618
X4.1634Y2.1618
X4.1634Y2.0618
X4.1634Y1.9618
X4.1634Y1.8618
X4.1634Y1.7618
X4.1634Y1.6618
X4.1634Y1.5618
X4.1634Y1.4618
X4.1634Y1.3618
X4.1634Y1.2618
X4.1634Y1.1618
X4.1634Y1.0618
X4.1713Y4.5335
X4.1713Y4.4335
X4.1713Y4.3335
X4.1713Y4.2335
X4.1713Y4.1335
X4.1713Y4.0335
X4.1713Y3.9335
X4.1713Y3.8335
X4.1713Y3.7335
X4.1713Y3.6335
X4.1713Y3.5335
X4.1713Y3.4335
X4.1713Y3.3335
X4.1713Y3.2335
X4.4598Y0.8622
X4.4598Y0.7622
X4.4598Y0.6622
X4.4598Y0.5622
X4.4598Y0.4622
X4.4598Y0.3622
X4.4598Y0.2622
X4.4598Y0.1622
X4.7598Y0.8622
X4.7598Y0.7622
X4.7598Y0.6622
X4.7598Y0.5622
X4.7598Y0.4622
X4.7598Y0.3622
X4.7598Y0.2622
X4.7598Y0.1622
X4.7634Y2.9618
X4.7634Y2.8618
X4.7634Y2.7618
X4.7634Y2.6618
X4.7634Y2.5618
X4.7634Y2.4618
X4.7634Y2.3618
X4.7634Y2.2618
X4.7634Y2.1618
X4.7634Y2.0618
X4.7634Y1.9618
X4.7634Y1.8618
X4.7634Y1.7618
X4.7634Y1.6618
X4.7634Y1.5618
X4.7634Y1.4618
X4.7634Y1.3618
X4.7634Y1.2618
X4.7634Y1.1618
X4.7634Y1.0618
X4.7713Y4.5335
X4.7713Y4.4335
X4.7713Y4.3335
X4.7713Y4.2335
X4.7713Y4.1335
X4.7713Y4.0335
X4.7713Y3.9335
X4.7713Y3.8335
X4.7713Y3.7335
X4.7713Y3.6335
X4.7713Y3.5335
X4.7713Y3.4335
X4.7713Y3.3335
X4.7713Y3.2335
X5.0039Y2.2362
X5.0039Y2.1362
X5.0039Y2.0362
X5.0039Y1.9362
X5.0039Y1.8362
X5.0039Y1.7362
X5.0039Y1.6362
X5.0039Y1.501
X5.0039Y1.401
X5.0039Y1.301
X5.0039Y1.201
X5.0039Y1.101
X5.0039Y1.001
X5.0039Y0.901
X5.0079Y0.7575
X5.0079Y0.6575
X5.0079Y0.5575
X5.0079Y0.4575
X5.0079Y0.3575
X5.0079Y0.2575
X5.0079Y0.1575
X5.0522Y4.5335
X5.0522Y4.4335
X5.0522Y4.3335
X5.0522Y4.2335
X5.0522Y4.1335
X5.0522Y4.0335
X5.0522Y3.9335
X5.0522Y3.8335
X5.0522Y3.7335
X5.0522Y3.6335
X5.0522Y3.5335
X5.0522Y3.4335
X5.0522Y3.3335
X5.0522Y3.2335
X5.3039Y2.2362
X5.3039Y2.1362
X5.3039Y2.0362
X5.3039Y1.9362
X5.3039Y1.8362
X5.3039Y1.7362
X5.3039Y1.6362
X5.3039Y1.501
X5.3039Y1.401
X5.3039Y1.301
X5.3039Y1.201
X5.3039Y1.101
X5.3039Y1.001
X5.3039Y0.901
X5.3079Y0.7575
X5.3079Y0.6575
X5.3079Y0.5575
X5.3079Y0.4575
X5.3079Y0.3575
X5.3079Y0.2575
X5.3079Y0.1575
X5.4839Y1.8976
X5.4839Y1.7795
X5.4839Y1.6614
X5.4839Y1.5433
X5.4839Y1.4252
X5.4839Y1.3071
X5.4839Y1.189
X5.4839Y1.0709
X5.4839Y0.9528
X5.4839Y0.8346
X5.4839Y0.7165
X5.4839Y0.5984
X5.4839Y0.4803
X5.4843Y2.252
X5.4843Y2.1339
X5.4843Y2.0157
X5.4858Y3.0335
X5.4858Y2.9134
X5.4858Y2.5591
X5.4858Y2.4409
X5.4862Y2.7953
X5.4862Y2.6772
X5.6522Y4.5335
X5.6522Y4.4335
X5.6522Y4.3335
X5.6522Y4.2335
X5.6522Y4.1335
X5.6522Y4.0335
X5.6522Y3.9335
X5.6522Y3.8335
X5.6522Y3.7335
X5.6522Y3.6335
X5.6522Y3.5335
X5.6522Y3.4335
X5.6522Y3.3335
X5.6522Y3.2335
X5.7839Y1.8976
X5.7839Y1.7795
X5.7839Y1.6614
X5.7839Y1.5433
X5.7839Y1.4252
X5.7839Y1.3071
X5.7839Y1.189
X5.7839Y1.0709
X5.7839Y0.9528
X5.7839Y0.8346
X5.7839Y0.7165
X5.7839Y0.5984
X5.7839Y0.4803
X5.7843Y2.252
X5.7843Y2.1339
X5.7843Y2.0157
X5.7858Y3.0335
X5.7858Y2.9134
X5.7858Y2.5591
X5.7858Y2.4409
X5.7862Y2.7953
X5.7862Y2.6772
T5
X0.1673Y4.5571
X0.1673Y4.4571
X0.1673Y4.3571
X0.1673Y4.2571
X0.1673Y4.1571
X0.1673Y4.0571
X0.1673Y3.9571
X0.1673Y3.8571
X0.1673Y3.7571
X0.1673Y3.6571
X0.1673Y3.5571
X0.1673Y3.4571
X0.1673Y3.3571
X0.1673Y3.2571
X0.1673Y3.1571
X0.1673Y3.0571
X0.1673Y2.9571
X0.1673Y2.8571
X0.1673Y2.7571
X0.1673Y2.6571
X0.1673Y2.5571
X0.1673Y2.4571
X0.1673Y2.3571
X0.1673Y2.2571
X0.1673Y2.1571
X0.1673Y2.0571
X0.1673Y1.9571
X0.1673Y1.8571
X0.1673Y1.7571
X0.1673Y1.6571
X0.1673Y1.5571
X0.1673Y1.4571
X0.187Y0.9744
X0.187Y0.8744
X0.187Y0.7744
X0.187Y0.6744
X0.187Y0.5744
X0.187Y0.4744
X0.187Y0.3744
X0.2673Y4.5571
X0.2673Y4.4571
X0.2673Y4.3571
X0.2673Y4.2571
X0.2673Y4.1571
X0.2673Y4.0571
X0.2673Y3.9571
X0.2673Y3.8571
X0.2673Y3.7571
X0.2673Y3.6571
X0.2673Y3.5571
X0.2673Y3.4571
X0.2673Y3.3571
X0.2673Y3.2571
X0.2673Y3.1571
X0.2673Y3.0571
X0.2673Y2.9571
X0.2673Y2.8571
X0.2673Y2.7571
X0.2673Y2.6571
X0.2673Y2.5571
X0.2673Y2.4571
X0.2673Y2.3571
X0.2673Y2.2571
X0.2673Y2.1571
X0.2673Y2.0571
X0.2673Y1.9571
X0.2673Y1.8571
X0.2673Y1.7571
X0.2673Y1.6571
X0.2673Y1.5571
X0.2673Y1.4571
X0.287Y0.9744
X0.287Y0.8744
X0.287Y0.7744
X0.287Y0.6744
X0.287Y0.5744
X0.287Y0.4744
X0.287Y0.3744
X2.7134Y1.7992
X2.7803Y2.3898
X2.8134Y1.7992
X2.8803Y2.3898
X2.9134Y1.7992
X2.9803Y2.3898
X3.126Y4.6315
X3.126Y4.5315
X3.126Y4.4315
X3.126Y4.3315
X3.126Y4.2315
X3.4409Y4.8071
X3.4409Y4.7071
X3.4685Y1.4803
X3.4772Y2.5354
X3.5409Y4.8071
X3.5409Y4.7071
X3.5685Y1.4803
X3.5772Y2.5354
X3.6409Y4.8071
X3.6409Y4.7071
X3.6685Y1.4803
X3.6772Y2.5354
X3.7409Y4.8071
X3.7409Y4.7071
X4.0236Y4.7323
X4.0236Y4.6323
X4.0236Y4.5323
X4.0236Y4.4323
X4.0236Y4.3323
X4.0236Y4.2323
X4.0433Y2.3638
X4.0433Y2.2638
X4.0433Y2.1638
X4.4335Y4.8012
X4.5335Y4.8012
X4.6335Y4.8012
X4.7335Y4.8012
X4.937Y4.7323
X4.937Y4.6323
X4.937Y4.5323
X4.937Y4.4323
X4.937Y4.3323
X4.937Y4.2323
X5.811Y4.7343
X5.811Y4.6343
X5.811Y4.5343
X5.811Y4.4343
X5.811Y4.3343
X5.811Y4.2343
X5.8268Y3.6315
X5.8268Y3.5315
X5.8268Y3.4315
X5.9846Y3.6319
X5.9846Y3.5319
X5.9846Y3.4319
X5.9846Y3.3319
X5.9846Y3.2319
X5.9846Y3.1319
X5.9846Y3.0319
X5.9846Y2.9319
X5.9846Y2.8319
X5.9846Y2.7319
X5.9846Y2.6319
X5.9846Y2.5319
X5.9846Y2.4319
X5.9846Y2.3319
X5.9846Y2.2319
X5.9846Y2.1319
X5.9846Y2.0319
X5.9846Y1.9319
X5.9846Y1.8319
X5.9846Y1.7319
X5.9846Y1.6319
X5.9846Y1.5319
X5.9846Y1.4319
X5.9846Y1.3319
X5.9846Y1.2319
X5.9846Y1.1319
X5.9846Y1.0319
X5.9846Y0.9319
X5.9846Y0.8319
X5.9846Y0.7319
X5.9846Y0.6319
X5.9846Y0.5319
X6.0846Y3.6319
X6.0846Y3.5319
X6.0846Y3.4319
X6.0846Y3.3319
X6.0846Y3.2319
X6.0846Y3.1319
X6.0846Y3.0319
X6.0846Y2.9319
X6.0846Y2.8319
X6.0846Y2.7319
X6.0846Y2.6319
X6.0846Y2.5319
X6.0846Y2.4319
X6.0846Y2.3319
X6.0846Y2.2319
X6.0846Y2.1319
X6.0846Y2.0319
X6.0846Y1.9319
X6.0846Y1.8319
X6.0846Y1.7319
X6.0846Y1.6319
X6.0846Y1.5319
X6.0846Y1.4319
X6.0846Y1.3319
X6.0846Y1.2319
X6.0846Y1.1319
X6.0846Y1.0319
X6.0846Y0.9319
X6.0846Y0.8319
X6.0846Y0.7319
X6.0846Y0.6319
X6.0846Y0.5319
T6
X3.4Y0.9
X3.4Y0.8
X3.4Y0.7
X3.4Y0.6
X3.4Y0.5
X3.4Y0.4
X3.4Y0.3
X3.4Y0.2
X3.4Y0.1
X3.5Y0.9
X3.5Y0.8
X3.5Y0.7
X3.5Y0.6
X3.5Y0.5
X3.5Y0.4
X3.5Y0.3
X3.5Y0.2
X3.5Y0.1
X3.6Y0.9
X3.6Y0.8
X3.6Y0.7
X3.6Y0.6
X3.6Y0.5
X3.6Y0.4
X3.6Y0.3
X3.6Y0.2
X3.6Y0.1
X3.7Y0.9
X3.7Y0.8
X3.7Y0.7
X3.7Y0.6
X3.7Y0.5
X3.7Y0.4
X3.7Y0.3
X3.7Y0.2
X3.7Y0.1
X3.8Y0.9
X3.8Y0.8
X3.8Y0.7
X3.8Y0.6
X3.8Y0.5
X3.8Y0.4
X3.8Y0.3
X3.8Y0.2
X3.8Y0.1
X3.9Y0.9
X3.9Y0.8
X3.9Y0.7
X3.9Y0.6
X3.9Y0.5
X3.9Y0.4
X3.9Y0.3
X3.9Y0.2
X3.9Y0.1
X4.0Y0.9
X4.0Y0.8
X4.0Y0.7
X4.0Y0.6
X4.0Y0.5
X4.0Y0.4
X4.0Y0.3
X4.0Y0.2
X4.0Y0.1
X4.1Y0.9
X4.1Y0.8
X4.1Y0.7
X4.1Y0.6
X4.1Y0.5
X4.1Y0.4
X4.1Y0.3
X4.1Y0.2
X4.1Y0.1
X4.2Y0.9
X4.2Y0.8
X4.2Y0.7
X4.2Y0.6
X4.2Y0.5
X4.2Y0.4
X4.2Y0.3
X4.2Y0.2
X4.2Y0.1
X4.3Y0.9
X4.3Y0.8
X4.3Y0.7
X4.3Y0.6
X4.3Y0.5
X4.3Y0.4
X4.3Y0.3
X4.3Y0.2
X4.3Y0.1
T0
M30
