%TF.GenerationSoftware,KiCad,Pcbnew,7.0.7*%
%TF.CreationDate,2023-10-18T15:04:27+01:00*%
%TF.ProjectId,CA80,43413830-2e6b-4696-9361-645f70636258,V1.0*%
%TF.SameCoordinates,Original*%
%TF.FileFunction,Drillmap*%
%TF.FilePolarity,Positive*%
%FSLAX45Y45*%
G04 Gerber Fmt 4.5, Leading zero omitted, Abs format (unit mm)*
G04 Created by KiCad (PCBNEW 7.0.7) date 2023-10-18 15:04:27*
%MOMM*%
%LPD*%
G01*
G04 APERTURE LIST*
%ADD10C,0.150000*%
%ADD11C,0.200000*%
%ADD12C,0.280000*%
G04 APERTURE END LIST*
D10*
X16000000Y12400000D02*
X16000000Y0D01*
X0Y12400000D02*
X16000000Y12400000D01*
X0Y0D02*
X0Y12400000D01*
X16000000Y0D02*
X0Y0D01*
D11*
D12*
X509000Y12278000D02*
X789000Y11998000D01*
X789000Y12278000D02*
X509000Y11998000D01*
X509000Y3278000D02*
X789000Y2998000D01*
X789000Y3278000D02*
X509000Y2998000D01*
X15569000Y9873000D02*
X15849000Y9593000D01*
X15849000Y9873000D02*
X15569000Y9593000D01*
X15569000Y983000D02*
X15849000Y703000D01*
X15849000Y983000D02*
X15569000Y703000D01*
D11*
X253277Y-318984D02*
X253277Y-118984D01*
X253277Y-118984D02*
X300896Y-118984D01*
X300896Y-118984D02*
X329467Y-128508D01*
X329467Y-128508D02*
X348515Y-147555D01*
X348515Y-147555D02*
X358039Y-166603D01*
X358039Y-166603D02*
X367562Y-204698D01*
X367562Y-204698D02*
X367562Y-233269D01*
X367562Y-233269D02*
X358039Y-271365D01*
X358039Y-271365D02*
X348515Y-290412D01*
X348515Y-290412D02*
X329467Y-309460D01*
X329467Y-309460D02*
X300896Y-318984D01*
X300896Y-318984D02*
X253277Y-318984D01*
X453277Y-318984D02*
X453277Y-185650D01*
X453277Y-223746D02*
X462801Y-204698D01*
X462801Y-204698D02*
X472324Y-195174D01*
X472324Y-195174D02*
X491372Y-185650D01*
X491372Y-185650D02*
X510420Y-185650D01*
X577086Y-318984D02*
X577086Y-185650D01*
X577086Y-118984D02*
X567563Y-128508D01*
X567563Y-128508D02*
X577086Y-138031D01*
X577086Y-138031D02*
X586610Y-128508D01*
X586610Y-128508D02*
X577086Y-118984D01*
X577086Y-118984D02*
X577086Y-138031D01*
X700896Y-318984D02*
X681848Y-309460D01*
X681848Y-309460D02*
X672324Y-290412D01*
X672324Y-290412D02*
X672324Y-118984D01*
X805658Y-318984D02*
X786610Y-309460D01*
X786610Y-309460D02*
X777086Y-290412D01*
X777086Y-290412D02*
X777086Y-118984D01*
X1034229Y-318984D02*
X1034229Y-118984D01*
X1034229Y-118984D02*
X1100896Y-261841D01*
X1100896Y-261841D02*
X1167563Y-118984D01*
X1167563Y-118984D02*
X1167563Y-318984D01*
X1348515Y-318984D02*
X1348515Y-214222D01*
X1348515Y-214222D02*
X1338991Y-195174D01*
X1338991Y-195174D02*
X1319944Y-185650D01*
X1319944Y-185650D02*
X1281848Y-185650D01*
X1281848Y-185650D02*
X1262801Y-195174D01*
X1348515Y-309460D02*
X1329467Y-318984D01*
X1329467Y-318984D02*
X1281848Y-318984D01*
X1281848Y-318984D02*
X1262801Y-309460D01*
X1262801Y-309460D02*
X1253277Y-290412D01*
X1253277Y-290412D02*
X1253277Y-271365D01*
X1253277Y-271365D02*
X1262801Y-252317D01*
X1262801Y-252317D02*
X1281848Y-242793D01*
X1281848Y-242793D02*
X1329467Y-242793D01*
X1329467Y-242793D02*
X1348515Y-233269D01*
X1443753Y-185650D02*
X1443753Y-385650D01*
X1443753Y-195174D02*
X1462801Y-185650D01*
X1462801Y-185650D02*
X1500896Y-185650D01*
X1500896Y-185650D02*
X1519943Y-195174D01*
X1519943Y-195174D02*
X1529467Y-204698D01*
X1529467Y-204698D02*
X1538991Y-223746D01*
X1538991Y-223746D02*
X1538991Y-280889D01*
X1538991Y-280889D02*
X1529467Y-299936D01*
X1529467Y-299936D02*
X1519943Y-309460D01*
X1519943Y-309460D02*
X1500896Y-318984D01*
X1500896Y-318984D02*
X1462801Y-318984D01*
X1462801Y-318984D02*
X1443753Y-309460D01*
X1624705Y-299936D02*
X1634229Y-309460D01*
X1634229Y-309460D02*
X1624705Y-318984D01*
X1624705Y-318984D02*
X1615182Y-309460D01*
X1615182Y-309460D02*
X1624705Y-299936D01*
X1624705Y-299936D02*
X1624705Y-318984D01*
X1624705Y-195174D02*
X1634229Y-204698D01*
X1634229Y-204698D02*
X1624705Y-214222D01*
X1624705Y-214222D02*
X1615182Y-204698D01*
X1615182Y-204698D02*
X1624705Y-195174D01*
X1624705Y-195174D02*
X1624705Y-214222D01*
X-207500Y-547500D02*
X-7500Y-747500D01*
X-7500Y-547500D02*
X-207500Y-747500D01*
X243753Y-558031D02*
X253277Y-548508D01*
X253277Y-548508D02*
X272324Y-538984D01*
X272324Y-538984D02*
X319944Y-538984D01*
X319944Y-538984D02*
X338991Y-548508D01*
X338991Y-548508D02*
X348515Y-558031D01*
X348515Y-558031D02*
X358039Y-577079D01*
X358039Y-577079D02*
X358039Y-596127D01*
X358039Y-596127D02*
X348515Y-624698D01*
X348515Y-624698D02*
X234229Y-738984D01*
X234229Y-738984D02*
X358039Y-738984D01*
X443753Y-719936D02*
X453277Y-729460D01*
X453277Y-729460D02*
X443753Y-738984D01*
X443753Y-738984D02*
X434229Y-729460D01*
X434229Y-729460D02*
X443753Y-719936D01*
X443753Y-719936D02*
X443753Y-738984D01*
X567563Y-624698D02*
X548515Y-615174D01*
X548515Y-615174D02*
X538991Y-605650D01*
X538991Y-605650D02*
X529467Y-586603D01*
X529467Y-586603D02*
X529467Y-577079D01*
X529467Y-577079D02*
X538991Y-558031D01*
X538991Y-558031D02*
X548515Y-548508D01*
X548515Y-548508D02*
X567563Y-538984D01*
X567563Y-538984D02*
X605658Y-538984D01*
X605658Y-538984D02*
X624705Y-548508D01*
X624705Y-548508D02*
X634229Y-558031D01*
X634229Y-558031D02*
X643753Y-577079D01*
X643753Y-577079D02*
X643753Y-586603D01*
X643753Y-586603D02*
X634229Y-605650D01*
X634229Y-605650D02*
X624705Y-615174D01*
X624705Y-615174D02*
X605658Y-624698D01*
X605658Y-624698D02*
X567563Y-624698D01*
X567563Y-624698D02*
X548515Y-634222D01*
X548515Y-634222D02*
X538991Y-643746D01*
X538991Y-643746D02*
X529467Y-662793D01*
X529467Y-662793D02*
X529467Y-700888D01*
X529467Y-700888D02*
X538991Y-719936D01*
X538991Y-719936D02*
X548515Y-729460D01*
X548515Y-729460D02*
X567563Y-738984D01*
X567563Y-738984D02*
X605658Y-738984D01*
X605658Y-738984D02*
X624705Y-729460D01*
X624705Y-729460D02*
X634229Y-719936D01*
X634229Y-719936D02*
X643753Y-700888D01*
X643753Y-700888D02*
X643753Y-662793D01*
X643753Y-662793D02*
X634229Y-643746D01*
X634229Y-643746D02*
X624705Y-634222D01*
X624705Y-634222D02*
X605658Y-624698D01*
X767562Y-538984D02*
X786610Y-538984D01*
X786610Y-538984D02*
X805658Y-548508D01*
X805658Y-548508D02*
X815182Y-558031D01*
X815182Y-558031D02*
X824705Y-577079D01*
X824705Y-577079D02*
X834229Y-615174D01*
X834229Y-615174D02*
X834229Y-662793D01*
X834229Y-662793D02*
X824705Y-700888D01*
X824705Y-700888D02*
X815182Y-719936D01*
X815182Y-719936D02*
X805658Y-729460D01*
X805658Y-729460D02*
X786610Y-738984D01*
X786610Y-738984D02*
X767562Y-738984D01*
X767562Y-738984D02*
X748515Y-729460D01*
X748515Y-729460D02*
X738991Y-719936D01*
X738991Y-719936D02*
X729467Y-700888D01*
X729467Y-700888D02*
X719943Y-662793D01*
X719943Y-662793D02*
X719943Y-615174D01*
X719943Y-615174D02*
X729467Y-577079D01*
X729467Y-577079D02*
X738991Y-558031D01*
X738991Y-558031D02*
X748515Y-548508D01*
X748515Y-548508D02*
X767562Y-538984D01*
X958039Y-538984D02*
X977086Y-538984D01*
X977086Y-538984D02*
X996134Y-548508D01*
X996134Y-548508D02*
X1005658Y-558031D01*
X1005658Y-558031D02*
X1015182Y-577079D01*
X1015182Y-577079D02*
X1024705Y-615174D01*
X1024705Y-615174D02*
X1024705Y-662793D01*
X1024705Y-662793D02*
X1015182Y-700888D01*
X1015182Y-700888D02*
X1005658Y-719936D01*
X1005658Y-719936D02*
X996134Y-729460D01*
X996134Y-729460D02*
X977086Y-738984D01*
X977086Y-738984D02*
X958039Y-738984D01*
X958039Y-738984D02*
X938991Y-729460D01*
X938991Y-729460D02*
X929467Y-719936D01*
X929467Y-719936D02*
X919943Y-700888D01*
X919943Y-700888D02*
X910420Y-662793D01*
X910420Y-662793D02*
X910420Y-615174D01*
X910420Y-615174D02*
X919943Y-577079D01*
X919943Y-577079D02*
X929467Y-558031D01*
X929467Y-558031D02*
X938991Y-548508D01*
X938991Y-548508D02*
X958039Y-538984D01*
X1110420Y-738984D02*
X1110420Y-605650D01*
X1110420Y-624698D02*
X1119944Y-615174D01*
X1119944Y-615174D02*
X1138991Y-605650D01*
X1138991Y-605650D02*
X1167563Y-605650D01*
X1167563Y-605650D02*
X1186610Y-615174D01*
X1186610Y-615174D02*
X1196134Y-634222D01*
X1196134Y-634222D02*
X1196134Y-738984D01*
X1196134Y-634222D02*
X1205658Y-615174D01*
X1205658Y-615174D02*
X1224705Y-605650D01*
X1224705Y-605650D02*
X1253277Y-605650D01*
X1253277Y-605650D02*
X1272325Y-615174D01*
X1272325Y-615174D02*
X1281848Y-634222D01*
X1281848Y-634222D02*
X1281848Y-738984D01*
X1377086Y-738984D02*
X1377086Y-605650D01*
X1377086Y-624698D02*
X1386610Y-615174D01*
X1386610Y-615174D02*
X1405658Y-605650D01*
X1405658Y-605650D02*
X1434229Y-605650D01*
X1434229Y-605650D02*
X1453277Y-615174D01*
X1453277Y-615174D02*
X1462801Y-634222D01*
X1462801Y-634222D02*
X1462801Y-738984D01*
X1462801Y-634222D02*
X1472324Y-615174D01*
X1472324Y-615174D02*
X1491372Y-605650D01*
X1491372Y-605650D02*
X1519943Y-605650D01*
X1519943Y-605650D02*
X1538991Y-615174D01*
X1538991Y-615174D02*
X1548515Y-634222D01*
X1548515Y-634222D02*
X1548515Y-738984D01*
X1938991Y-529460D02*
X1767563Y-786603D01*
X2196134Y-538984D02*
X2215182Y-538984D01*
X2215182Y-538984D02*
X2234229Y-548508D01*
X2234229Y-548508D02*
X2243753Y-558031D01*
X2243753Y-558031D02*
X2253277Y-577079D01*
X2253277Y-577079D02*
X2262801Y-615174D01*
X2262801Y-615174D02*
X2262801Y-662793D01*
X2262801Y-662793D02*
X2253277Y-700888D01*
X2253277Y-700888D02*
X2243753Y-719936D01*
X2243753Y-719936D02*
X2234229Y-729460D01*
X2234229Y-729460D02*
X2215182Y-738984D01*
X2215182Y-738984D02*
X2196134Y-738984D01*
X2196134Y-738984D02*
X2177087Y-729460D01*
X2177087Y-729460D02*
X2167563Y-719936D01*
X2167563Y-719936D02*
X2158039Y-700888D01*
X2158039Y-700888D02*
X2148515Y-662793D01*
X2148515Y-662793D02*
X2148515Y-615174D01*
X2148515Y-615174D02*
X2158039Y-577079D01*
X2158039Y-577079D02*
X2167563Y-558031D01*
X2167563Y-558031D02*
X2177087Y-548508D01*
X2177087Y-548508D02*
X2196134Y-538984D01*
X2348515Y-719936D02*
X2358039Y-729460D01*
X2358039Y-729460D02*
X2348515Y-738984D01*
X2348515Y-738984D02*
X2338991Y-729460D01*
X2338991Y-729460D02*
X2348515Y-719936D01*
X2348515Y-719936D02*
X2348515Y-738984D01*
X2548515Y-738984D02*
X2434229Y-738984D01*
X2491372Y-738984D02*
X2491372Y-538984D01*
X2491372Y-538984D02*
X2472325Y-567555D01*
X2472325Y-567555D02*
X2453277Y-586603D01*
X2453277Y-586603D02*
X2434229Y-596127D01*
X2738991Y-738984D02*
X2624706Y-738984D01*
X2681848Y-738984D02*
X2681848Y-538984D01*
X2681848Y-538984D02*
X2662801Y-567555D01*
X2662801Y-567555D02*
X2643753Y-586603D01*
X2643753Y-586603D02*
X2624706Y-596127D01*
X2862801Y-538984D02*
X2881848Y-538984D01*
X2881848Y-538984D02*
X2900896Y-548508D01*
X2900896Y-548508D02*
X2910420Y-558031D01*
X2910420Y-558031D02*
X2919944Y-577079D01*
X2919944Y-577079D02*
X2929467Y-615174D01*
X2929467Y-615174D02*
X2929467Y-662793D01*
X2929467Y-662793D02*
X2919944Y-700888D01*
X2919944Y-700888D02*
X2910420Y-719936D01*
X2910420Y-719936D02*
X2900896Y-729460D01*
X2900896Y-729460D02*
X2881848Y-738984D01*
X2881848Y-738984D02*
X2862801Y-738984D01*
X2862801Y-738984D02*
X2843753Y-729460D01*
X2843753Y-729460D02*
X2834229Y-719936D01*
X2834229Y-719936D02*
X2824706Y-700888D01*
X2824706Y-700888D02*
X2815182Y-662793D01*
X2815182Y-662793D02*
X2815182Y-615174D01*
X2815182Y-615174D02*
X2824706Y-577079D01*
X2824706Y-577079D02*
X2834229Y-558031D01*
X2834229Y-558031D02*
X2843753Y-548508D01*
X2843753Y-548508D02*
X2862801Y-538984D01*
X3005658Y-558031D02*
X3015182Y-548508D01*
X3015182Y-548508D02*
X3034229Y-538984D01*
X3034229Y-538984D02*
X3081848Y-538984D01*
X3081848Y-538984D02*
X3100896Y-548508D01*
X3100896Y-548508D02*
X3110420Y-558031D01*
X3110420Y-558031D02*
X3119944Y-577079D01*
X3119944Y-577079D02*
X3119944Y-596127D01*
X3119944Y-596127D02*
X3110420Y-624698D01*
X3110420Y-624698D02*
X2996134Y-738984D01*
X2996134Y-738984D02*
X3119944Y-738984D01*
X3196134Y-538984D02*
X3196134Y-577079D01*
X3272325Y-538984D02*
X3272325Y-577079D01*
X3567563Y-815174D02*
X3558039Y-805650D01*
X3558039Y-805650D02*
X3538991Y-777079D01*
X3538991Y-777079D02*
X3529468Y-758031D01*
X3529468Y-758031D02*
X3519944Y-729460D01*
X3519944Y-729460D02*
X3510420Y-681841D01*
X3510420Y-681841D02*
X3510420Y-643746D01*
X3510420Y-643746D02*
X3519944Y-596127D01*
X3519944Y-596127D02*
X3529468Y-567555D01*
X3529468Y-567555D02*
X3538991Y-548508D01*
X3538991Y-548508D02*
X3558039Y-519936D01*
X3558039Y-519936D02*
X3567563Y-510412D01*
X3729468Y-605650D02*
X3729468Y-738984D01*
X3681848Y-529460D02*
X3634229Y-672317D01*
X3634229Y-672317D02*
X3758039Y-672317D01*
X3986610Y-738984D02*
X3986610Y-538984D01*
X4072325Y-738984D02*
X4072325Y-634222D01*
X4072325Y-634222D02*
X4062801Y-615174D01*
X4062801Y-615174D02*
X4043753Y-605650D01*
X4043753Y-605650D02*
X4015182Y-605650D01*
X4015182Y-605650D02*
X3996134Y-615174D01*
X3996134Y-615174D02*
X3986610Y-624698D01*
X4196134Y-738984D02*
X4177087Y-729460D01*
X4177087Y-729460D02*
X4167563Y-719936D01*
X4167563Y-719936D02*
X4158039Y-700888D01*
X4158039Y-700888D02*
X4158039Y-643746D01*
X4158039Y-643746D02*
X4167563Y-624698D01*
X4167563Y-624698D02*
X4177087Y-615174D01*
X4177087Y-615174D02*
X4196134Y-605650D01*
X4196134Y-605650D02*
X4224706Y-605650D01*
X4224706Y-605650D02*
X4243753Y-615174D01*
X4243753Y-615174D02*
X4253277Y-624698D01*
X4253277Y-624698D02*
X4262801Y-643746D01*
X4262801Y-643746D02*
X4262801Y-700888D01*
X4262801Y-700888D02*
X4253277Y-719936D01*
X4253277Y-719936D02*
X4243753Y-729460D01*
X4243753Y-729460D02*
X4224706Y-738984D01*
X4224706Y-738984D02*
X4196134Y-738984D01*
X4377087Y-738984D02*
X4358039Y-729460D01*
X4358039Y-729460D02*
X4348515Y-710412D01*
X4348515Y-710412D02*
X4348515Y-538984D01*
X4529468Y-729460D02*
X4510420Y-738984D01*
X4510420Y-738984D02*
X4472325Y-738984D01*
X4472325Y-738984D02*
X4453277Y-729460D01*
X4453277Y-729460D02*
X4443753Y-710412D01*
X4443753Y-710412D02*
X4443753Y-634222D01*
X4443753Y-634222D02*
X4453277Y-615174D01*
X4453277Y-615174D02*
X4472325Y-605650D01*
X4472325Y-605650D02*
X4510420Y-605650D01*
X4510420Y-605650D02*
X4529468Y-615174D01*
X4529468Y-615174D02*
X4538992Y-634222D01*
X4538992Y-634222D02*
X4538992Y-653270D01*
X4538992Y-653270D02*
X4443753Y-672317D01*
X4615182Y-729460D02*
X4634230Y-738984D01*
X4634230Y-738984D02*
X4672325Y-738984D01*
X4672325Y-738984D02*
X4691373Y-729460D01*
X4691373Y-729460D02*
X4700896Y-710412D01*
X4700896Y-710412D02*
X4700896Y-700888D01*
X4700896Y-700888D02*
X4691373Y-681841D01*
X4691373Y-681841D02*
X4672325Y-672317D01*
X4672325Y-672317D02*
X4643753Y-672317D01*
X4643753Y-672317D02*
X4624706Y-662793D01*
X4624706Y-662793D02*
X4615182Y-643746D01*
X4615182Y-643746D02*
X4615182Y-634222D01*
X4615182Y-634222D02*
X4624706Y-615174D01*
X4624706Y-615174D02*
X4643753Y-605650D01*
X4643753Y-605650D02*
X4672325Y-605650D01*
X4672325Y-605650D02*
X4691373Y-615174D01*
X4767563Y-815174D02*
X4777087Y-805650D01*
X4777087Y-805650D02*
X4796134Y-777079D01*
X4796134Y-777079D02*
X4805658Y-758031D01*
X4805658Y-758031D02*
X4815182Y-729460D01*
X4815182Y-729460D02*
X4824706Y-681841D01*
X4824706Y-681841D02*
X4824706Y-643746D01*
X4824706Y-643746D02*
X4815182Y-596127D01*
X4815182Y-596127D02*
X4805658Y-567555D01*
X4805658Y-567555D02*
X4796134Y-548508D01*
X4796134Y-548508D02*
X4777087Y-519936D01*
X4777087Y-519936D02*
X4767563Y-510412D01*
X5129468Y-815174D02*
X5119944Y-805650D01*
X5119944Y-805650D02*
X5100896Y-777079D01*
X5100896Y-777079D02*
X5091373Y-758031D01*
X5091373Y-758031D02*
X5081849Y-729460D01*
X5081849Y-729460D02*
X5072325Y-681841D01*
X5072325Y-681841D02*
X5072325Y-643746D01*
X5072325Y-643746D02*
X5081849Y-596127D01*
X5081849Y-596127D02*
X5091373Y-567555D01*
X5091373Y-567555D02*
X5100896Y-548508D01*
X5100896Y-548508D02*
X5119944Y-519936D01*
X5119944Y-519936D02*
X5129468Y-510412D01*
X5205658Y-605650D02*
X5205658Y-738984D01*
X5205658Y-624698D02*
X5215182Y-615174D01*
X5215182Y-615174D02*
X5234230Y-605650D01*
X5234230Y-605650D02*
X5262801Y-605650D01*
X5262801Y-605650D02*
X5281849Y-615174D01*
X5281849Y-615174D02*
X5291373Y-634222D01*
X5291373Y-634222D02*
X5291373Y-738984D01*
X5415182Y-738984D02*
X5396134Y-729460D01*
X5396134Y-729460D02*
X5386611Y-719936D01*
X5386611Y-719936D02*
X5377087Y-700888D01*
X5377087Y-700888D02*
X5377087Y-643746D01*
X5377087Y-643746D02*
X5386611Y-624698D01*
X5386611Y-624698D02*
X5396134Y-615174D01*
X5396134Y-615174D02*
X5415182Y-605650D01*
X5415182Y-605650D02*
X5443754Y-605650D01*
X5443754Y-605650D02*
X5462801Y-615174D01*
X5462801Y-615174D02*
X5472325Y-624698D01*
X5472325Y-624698D02*
X5481849Y-643746D01*
X5481849Y-643746D02*
X5481849Y-700888D01*
X5481849Y-700888D02*
X5472325Y-719936D01*
X5472325Y-719936D02*
X5462801Y-729460D01*
X5462801Y-729460D02*
X5443754Y-738984D01*
X5443754Y-738984D02*
X5415182Y-738984D01*
X5538992Y-605650D02*
X5615182Y-605650D01*
X5567563Y-538984D02*
X5567563Y-710412D01*
X5567563Y-710412D02*
X5577087Y-729460D01*
X5577087Y-729460D02*
X5596134Y-738984D01*
X5596134Y-738984D02*
X5615182Y-738984D01*
X5834230Y-605650D02*
X5834230Y-805650D01*
X5834230Y-615174D02*
X5853277Y-605650D01*
X5853277Y-605650D02*
X5891373Y-605650D01*
X5891373Y-605650D02*
X5910420Y-615174D01*
X5910420Y-615174D02*
X5919944Y-624698D01*
X5919944Y-624698D02*
X5929468Y-643746D01*
X5929468Y-643746D02*
X5929468Y-700888D01*
X5929468Y-700888D02*
X5919944Y-719936D01*
X5919944Y-719936D02*
X5910420Y-729460D01*
X5910420Y-729460D02*
X5891373Y-738984D01*
X5891373Y-738984D02*
X5853277Y-738984D01*
X5853277Y-738984D02*
X5834230Y-729460D01*
X6043753Y-738984D02*
X6024706Y-729460D01*
X6024706Y-729460D02*
X6015182Y-710412D01*
X6015182Y-710412D02*
X6015182Y-538984D01*
X6205658Y-738984D02*
X6205658Y-634222D01*
X6205658Y-634222D02*
X6196134Y-615174D01*
X6196134Y-615174D02*
X6177087Y-605650D01*
X6177087Y-605650D02*
X6138992Y-605650D01*
X6138992Y-605650D02*
X6119944Y-615174D01*
X6205658Y-729460D02*
X6186611Y-738984D01*
X6186611Y-738984D02*
X6138992Y-738984D01*
X6138992Y-738984D02*
X6119944Y-729460D01*
X6119944Y-729460D02*
X6110420Y-710412D01*
X6110420Y-710412D02*
X6110420Y-691365D01*
X6110420Y-691365D02*
X6119944Y-672317D01*
X6119944Y-672317D02*
X6138992Y-662793D01*
X6138992Y-662793D02*
X6186611Y-662793D01*
X6186611Y-662793D02*
X6205658Y-653270D01*
X6272325Y-605650D02*
X6348515Y-605650D01*
X6300896Y-538984D02*
X6300896Y-710412D01*
X6300896Y-710412D02*
X6310420Y-729460D01*
X6310420Y-729460D02*
X6329468Y-738984D01*
X6329468Y-738984D02*
X6348515Y-738984D01*
X6491373Y-729460D02*
X6472325Y-738984D01*
X6472325Y-738984D02*
X6434230Y-738984D01*
X6434230Y-738984D02*
X6415182Y-729460D01*
X6415182Y-729460D02*
X6405658Y-710412D01*
X6405658Y-710412D02*
X6405658Y-634222D01*
X6405658Y-634222D02*
X6415182Y-615174D01*
X6415182Y-615174D02*
X6434230Y-605650D01*
X6434230Y-605650D02*
X6472325Y-605650D01*
X6472325Y-605650D02*
X6491373Y-615174D01*
X6491373Y-615174D02*
X6500896Y-634222D01*
X6500896Y-634222D02*
X6500896Y-653270D01*
X6500896Y-653270D02*
X6405658Y-672317D01*
X6672325Y-738984D02*
X6672325Y-538984D01*
X6672325Y-729460D02*
X6653277Y-738984D01*
X6653277Y-738984D02*
X6615182Y-738984D01*
X6615182Y-738984D02*
X6596134Y-729460D01*
X6596134Y-729460D02*
X6586611Y-719936D01*
X6586611Y-719936D02*
X6577087Y-700888D01*
X6577087Y-700888D02*
X6577087Y-643746D01*
X6577087Y-643746D02*
X6586611Y-624698D01*
X6586611Y-624698D02*
X6596134Y-615174D01*
X6596134Y-615174D02*
X6615182Y-605650D01*
X6615182Y-605650D02*
X6653277Y-605650D01*
X6653277Y-605650D02*
X6672325Y-615174D01*
X6748515Y-815174D02*
X6758039Y-805650D01*
X6758039Y-805650D02*
X6777087Y-777079D01*
X6777087Y-777079D02*
X6786611Y-758031D01*
X6786611Y-758031D02*
X6796134Y-729460D01*
X6796134Y-729460D02*
X6805658Y-681841D01*
X6805658Y-681841D02*
X6805658Y-643746D01*
X6805658Y-643746D02*
X6796134Y-596127D01*
X6796134Y-596127D02*
X6786611Y-567555D01*
X6786611Y-567555D02*
X6777087Y-548508D01*
X6777087Y-548508D02*
X6758039Y-519936D01*
X6758039Y-519936D02*
X6748515Y-510412D01*
M02*
