G04 #@! TF.GenerationSoftware,KiCad,Pcbnew,7.0.7*
G04 #@! TF.CreationDate,2023-10-18T15:04:20+01:00*
G04 #@! TF.ProjectId,CA80,43413830-2e6b-4696-9361-645f70636258,V1.0*
G04 #@! TF.SameCoordinates,Original*
G04 #@! TF.FileFunction,Copper,L1,Top*
G04 #@! TF.FilePolarity,Positive*
%FSLAX46Y46*%
G04 Gerber Fmt 4.6, Leading zero omitted, Abs format (unit mm)*
G04 Created by KiCad (PCBNEW 7.0.7) date 2023-10-18 15:04:20*
%MOMM*%
%LPD*%
G01*
G04 APERTURE LIST*
G04 #@! TA.AperFunction,ComponentPad*
%ADD10R,1.600000X1.600000*%
G04 #@! TD*
G04 #@! TA.AperFunction,ComponentPad*
%ADD11O,1.600000X1.600000*%
G04 #@! TD*
G04 #@! TA.AperFunction,ComponentPad*
%ADD12C,1.600000*%
G04 #@! TD*
G04 #@! TA.AperFunction,ComponentPad*
%ADD13C,1.500000*%
G04 #@! TD*
G04 #@! TA.AperFunction,ComponentPad*
%ADD14R,1.700000X1.700000*%
G04 #@! TD*
G04 #@! TA.AperFunction,ComponentPad*
%ADD15C,1.700000*%
G04 #@! TD*
G04 #@! TA.AperFunction,ComponentPad*
%ADD16R,1.500000X1.050000*%
G04 #@! TD*
G04 #@! TA.AperFunction,ComponentPad*
%ADD17O,1.500000X1.050000*%
G04 #@! TD*
G04 #@! TA.AperFunction,ComponentPad*
%ADD18O,1.700000X1.700000*%
G04 #@! TD*
G04 #@! TA.AperFunction,ViaPad*
%ADD19C,2.000000*%
G04 #@! TD*
G04 #@! TA.AperFunction,ViaPad*
%ADD20C,0.450000*%
G04 #@! TD*
G04 #@! TA.AperFunction,ViaPad*
%ADD21C,0.400000*%
G04 #@! TD*
G04 #@! TA.AperFunction,Conductor*
%ADD22C,0.250000*%
G04 #@! TD*
G04 APERTURE END LIST*
D10*
X78440000Y75620000D03*
D11*
X75900000Y75620000D03*
X73360000Y75620000D03*
X70820000Y75620000D03*
X68280000Y75620000D03*
X65740000Y75620000D03*
X63200000Y75620000D03*
X60660000Y75620000D03*
X60660000Y68000000D03*
X63200000Y68000000D03*
X65740000Y68000000D03*
X68280000Y68000000D03*
X70820000Y68000000D03*
X73360000Y68000000D03*
X75900000Y68000000D03*
X78440000Y68000000D03*
D10*
X15250000Y117680000D03*
D11*
X15250000Y115140000D03*
X15250000Y112600000D03*
X15250000Y110060000D03*
X15250000Y107520000D03*
X15250000Y104980000D03*
X15250000Y102440000D03*
X15250000Y99900000D03*
X15250000Y97360000D03*
X15250000Y94820000D03*
X15250000Y92280000D03*
X15250000Y89740000D03*
X15250000Y87200000D03*
X15250000Y84660000D03*
X15250000Y82120000D03*
X15250000Y79580000D03*
X15250000Y77040000D03*
X15250000Y74500000D03*
X15250000Y71960000D03*
X15250000Y69420000D03*
X30490000Y69420000D03*
X30490000Y71960000D03*
X30490000Y74500000D03*
X30490000Y77040000D03*
X30490000Y79580000D03*
X30490000Y82120000D03*
X30490000Y84660000D03*
X30490000Y87200000D03*
X30490000Y89740000D03*
X30490000Y92280000D03*
X30490000Y94820000D03*
X30490000Y97360000D03*
X30490000Y99900000D03*
X30490000Y102440000D03*
X30490000Y104980000D03*
X30490000Y107520000D03*
X30490000Y110060000D03*
X30490000Y112600000D03*
X30490000Y115140000D03*
X30490000Y117680000D03*
D10*
X50305112Y62800000D03*
D12*
X47805112Y62800000D03*
D10*
X128325000Y115150000D03*
D11*
X128325000Y112610000D03*
X128325000Y110070000D03*
X128325000Y107530000D03*
X128325000Y104990000D03*
X128325000Y102450000D03*
X128325000Y99910000D03*
X128325000Y97370000D03*
X128325000Y94830000D03*
X128325000Y92290000D03*
X128325000Y89750000D03*
X128325000Y87210000D03*
X128325000Y84670000D03*
X128325000Y82130000D03*
X143565000Y82130000D03*
X143565000Y84670000D03*
X143565000Y87210000D03*
X143565000Y89750000D03*
X143565000Y92290000D03*
X143565000Y94830000D03*
X143565000Y97370000D03*
X143565000Y99910000D03*
X143565000Y102450000D03*
X143565000Y104990000D03*
X143565000Y107530000D03*
X143565000Y110070000D03*
X143565000Y112610000D03*
X143565000Y115150000D03*
D10*
X99690000Y75620000D03*
D11*
X97150000Y75620000D03*
X94610000Y75620000D03*
X92070000Y75620000D03*
X89530000Y75620000D03*
X86990000Y75620000D03*
X84450000Y75620000D03*
X81910000Y75620000D03*
X81910000Y68000000D03*
X84450000Y68000000D03*
X86990000Y68000000D03*
X89530000Y68000000D03*
X92070000Y68000000D03*
X94610000Y68000000D03*
X97150000Y68000000D03*
X99690000Y68000000D03*
D10*
X60700000Y115145000D03*
D11*
X60700000Y112605000D03*
X60700000Y110065000D03*
X60700000Y107525000D03*
X60700000Y104985000D03*
X60700000Y102445000D03*
X60700000Y99905000D03*
X60700000Y97365000D03*
X60700000Y94825000D03*
X60700000Y92285000D03*
X60700000Y89745000D03*
X60700000Y87205000D03*
X60700000Y84665000D03*
X60700000Y82125000D03*
X75940000Y82125000D03*
X75940000Y84665000D03*
X75940000Y87205000D03*
X75940000Y89745000D03*
X75940000Y92285000D03*
X75940000Y94825000D03*
X75940000Y97365000D03*
X75940000Y99905000D03*
X75940000Y102445000D03*
X75940000Y104985000D03*
X75940000Y107525000D03*
X75940000Y110065000D03*
X75940000Y112605000D03*
X75940000Y115145000D03*
D12*
X62610000Y62800000D03*
D11*
X54990000Y62800000D03*
D10*
X38000000Y117680000D03*
D11*
X38000000Y115140000D03*
X38000000Y112600000D03*
X38000000Y110060000D03*
X38000000Y107520000D03*
X38000000Y104980000D03*
X38000000Y102440000D03*
X38000000Y99900000D03*
X38000000Y97360000D03*
X38000000Y94820000D03*
X38000000Y92280000D03*
X38000000Y89740000D03*
X38000000Y87200000D03*
X38000000Y84660000D03*
X38000000Y82120000D03*
X38000000Y79580000D03*
X38000000Y77040000D03*
X38000000Y74500000D03*
X38000000Y71960000D03*
X38000000Y69420000D03*
X53240000Y69420000D03*
X53240000Y71960000D03*
X53240000Y74500000D03*
X53240000Y77040000D03*
X53240000Y79580000D03*
X53240000Y82120000D03*
X53240000Y84660000D03*
X53240000Y87200000D03*
X53240000Y89740000D03*
X53240000Y92280000D03*
X53240000Y94820000D03*
X53240000Y97360000D03*
X53240000Y99900000D03*
X53240000Y102440000D03*
X53240000Y104980000D03*
X53240000Y107520000D03*
X53240000Y110060000D03*
X53240000Y112600000D03*
X53240000Y115140000D03*
X53240000Y117680000D03*
D10*
X105750000Y75230000D03*
D11*
X105750000Y72690000D03*
X105750000Y70150000D03*
X105750000Y67610000D03*
X105750000Y65070000D03*
X105750000Y62530000D03*
X105750000Y59990000D03*
X105750000Y57450000D03*
X105750000Y54910000D03*
X105750000Y52370000D03*
X105750000Y49830000D03*
X105750000Y47290000D03*
X105750000Y44750000D03*
X105750000Y42210000D03*
X105750000Y39670000D03*
X105750000Y37130000D03*
X105750000Y34590000D03*
X105750000Y32050000D03*
X105750000Y29510000D03*
X105750000Y26970000D03*
X120990000Y26970000D03*
X120990000Y29510000D03*
X120990000Y32050000D03*
X120990000Y34590000D03*
X120990000Y37130000D03*
X120990000Y39670000D03*
X120990000Y42210000D03*
X120990000Y44750000D03*
X120990000Y47290000D03*
X120990000Y49830000D03*
X120990000Y52370000D03*
X120990000Y54910000D03*
X120990000Y57450000D03*
X120990000Y59990000D03*
X120990000Y62530000D03*
X120990000Y65070000D03*
X120990000Y67610000D03*
X120990000Y70150000D03*
X120990000Y72690000D03*
X120990000Y75230000D03*
D10*
X82950000Y115145000D03*
D11*
X82950000Y112605000D03*
X82950000Y110065000D03*
X82950000Y107525000D03*
X82950000Y104985000D03*
X82950000Y102445000D03*
X82950000Y99905000D03*
X82950000Y97365000D03*
X82950000Y94825000D03*
X82950000Y92285000D03*
X82950000Y89745000D03*
X82950000Y87205000D03*
X82950000Y84665000D03*
X82950000Y82125000D03*
X98190000Y82125000D03*
X98190000Y84665000D03*
X98190000Y87205000D03*
X98190000Y89745000D03*
X98190000Y92285000D03*
X98190000Y94825000D03*
X98190000Y97365000D03*
X98190000Y99905000D03*
X98190000Y102445000D03*
X98190000Y104985000D03*
X98190000Y107525000D03*
X98190000Y110065000D03*
X98190000Y112605000D03*
X98190000Y115145000D03*
D10*
X75940000Y57000000D03*
D11*
X73400000Y57000000D03*
X70860000Y57000000D03*
X68320000Y57000000D03*
X65780000Y57000000D03*
X63240000Y57000000D03*
X60700000Y57000000D03*
X60700000Y49380000D03*
X63240000Y49380000D03*
X65780000Y49380000D03*
X68320000Y49380000D03*
X70860000Y49380000D03*
X73400000Y49380000D03*
X75940000Y49380000D03*
D10*
X105950000Y115150000D03*
D11*
X105950000Y112610000D03*
X105950000Y110070000D03*
X105950000Y107530000D03*
X105950000Y104990000D03*
X105950000Y102450000D03*
X105950000Y99910000D03*
X105950000Y97370000D03*
X105950000Y94830000D03*
X105950000Y92290000D03*
X105950000Y89750000D03*
X105950000Y87210000D03*
X105950000Y84670000D03*
X105950000Y82130000D03*
X121190000Y82130000D03*
X121190000Y84670000D03*
X121190000Y87210000D03*
X121190000Y89750000D03*
X121190000Y92290000D03*
X121190000Y94830000D03*
X121190000Y97370000D03*
X121190000Y99910000D03*
X121190000Y102450000D03*
X121190000Y104990000D03*
X121190000Y107530000D03*
X121190000Y110070000D03*
X121190000Y112610000D03*
X121190000Y115150000D03*
D10*
X75940000Y34600000D03*
D11*
X73400000Y34600000D03*
X70860000Y34600000D03*
X68320000Y34600000D03*
X65780000Y34600000D03*
X63240000Y34600000D03*
X60700000Y34600000D03*
X60700000Y26980000D03*
X63240000Y26980000D03*
X65780000Y26980000D03*
X68320000Y26980000D03*
X70860000Y26980000D03*
X73400000Y26980000D03*
X75940000Y26980000D03*
D10*
X15250000Y64910000D03*
D11*
X15250000Y62370000D03*
X15250000Y59830000D03*
X15250000Y57290000D03*
X15250000Y54750000D03*
X15250000Y52210000D03*
X15250000Y49670000D03*
X15250000Y47130000D03*
X15250000Y44590000D03*
X15250000Y42050000D03*
X15250000Y39510000D03*
X15250000Y36970000D03*
X15250000Y34430000D03*
X15250000Y31890000D03*
X30490000Y31890000D03*
X30490000Y34430000D03*
X30490000Y36970000D03*
X30490000Y39510000D03*
X30490000Y42050000D03*
X30490000Y44590000D03*
X30490000Y47130000D03*
X30490000Y49670000D03*
X30490000Y52210000D03*
X30490000Y54750000D03*
X30490000Y57290000D03*
X30490000Y59830000D03*
X30490000Y62370000D03*
X30490000Y64910000D03*
D13*
X52480000Y52700000D03*
X47600000Y52700000D03*
D14*
X4250000Y115750000D03*
D15*
X4250000Y113210000D03*
X4250000Y110670000D03*
X4250000Y108130000D03*
X4250000Y105590000D03*
X4250000Y103050000D03*
X4250000Y100510000D03*
X4250000Y97970000D03*
X4250000Y95430000D03*
X4250000Y92890000D03*
X4250000Y90350000D03*
X4250000Y87810000D03*
X4250000Y85270000D03*
X4250000Y82730000D03*
X4250000Y80190000D03*
X4250000Y77650000D03*
X4250000Y75110000D03*
X4250000Y72570000D03*
X4250000Y70030000D03*
X4250000Y67490000D03*
X4250000Y64950000D03*
X4250000Y62410000D03*
X4250000Y59870000D03*
X4250000Y57330000D03*
X4250000Y54790000D03*
X4250000Y52250000D03*
X4250000Y49710000D03*
X4250000Y47170000D03*
X4250000Y44630000D03*
X4250000Y42090000D03*
X4250000Y39550000D03*
X4250000Y37010000D03*
X6790000Y115750000D03*
X6790000Y113210000D03*
X6790000Y110670000D03*
X6790000Y108130000D03*
X6790000Y105590000D03*
X6790000Y103050000D03*
X6790000Y100510000D03*
X6790000Y97970000D03*
X6790000Y95430000D03*
X6790000Y92890000D03*
X6790000Y90350000D03*
X6790000Y87810000D03*
X6790000Y85270000D03*
X6790000Y82730000D03*
X6790000Y80190000D03*
X6790000Y77650000D03*
X6790000Y75110000D03*
X6790000Y72570000D03*
X6790000Y70030000D03*
X6790000Y67490000D03*
X6790000Y64950000D03*
X6790000Y62410000D03*
X6790000Y59870000D03*
X6790000Y57330000D03*
X6790000Y54790000D03*
X6790000Y52250000D03*
X6790000Y49710000D03*
X6790000Y47170000D03*
X6790000Y44630000D03*
X6790000Y42090000D03*
X6790000Y39550000D03*
X6790000Y37010000D03*
D16*
X75400000Y38660000D03*
D17*
X75400000Y39930000D03*
X75400000Y41200000D03*
D12*
X60500000Y45400000D03*
X65500000Y45400000D03*
X67700000Y78300000D03*
X62700000Y78300000D03*
X60290000Y42400000D03*
D11*
X67910000Y42400000D03*
D12*
X60490000Y37600000D03*
D11*
X68110000Y37600000D03*
D12*
X56800000Y5700000D03*
D11*
X64420000Y5700000D03*
D12*
X64420000Y2700000D03*
D11*
X56800000Y2700000D03*
D10*
X74380000Y21950000D03*
D11*
X74380000Y19410000D03*
X74380000Y16870000D03*
X74380000Y14330000D03*
X74380000Y11790000D03*
X74380000Y9250000D03*
X74380000Y6710000D03*
X74380000Y4170000D03*
X82000000Y4170000D03*
X82000000Y6710000D03*
X82000000Y9250000D03*
X82000000Y11790000D03*
X82000000Y14330000D03*
X82000000Y16870000D03*
X82000000Y19410000D03*
X82000000Y21950000D03*
D10*
X97140000Y61200000D03*
D11*
X94600000Y61200000D03*
X92060000Y61200000D03*
X89520000Y61200000D03*
X86980000Y61200000D03*
X84440000Y61200000D03*
X81900000Y61200000D03*
X81900000Y53580000D03*
X84440000Y53580000D03*
X86980000Y53580000D03*
X89520000Y53580000D03*
X92060000Y53580000D03*
X94600000Y53580000D03*
X97140000Y53580000D03*
D10*
X100180000Y48250000D03*
D11*
X97640000Y48250000D03*
X95100000Y48250000D03*
X92560000Y48250000D03*
X90020000Y48250000D03*
X87480000Y48250000D03*
X84940000Y48250000D03*
X82400000Y48250000D03*
X82400000Y40630000D03*
X84940000Y40630000D03*
X87480000Y40630000D03*
X90020000Y40630000D03*
X92560000Y40630000D03*
X95100000Y40630000D03*
X97640000Y40630000D03*
X100180000Y40630000D03*
D10*
X100200000Y34500000D03*
D11*
X97660000Y34500000D03*
X95120000Y34500000D03*
X92580000Y34500000D03*
X90040000Y34500000D03*
X87500000Y34500000D03*
X84960000Y34500000D03*
X82420000Y34500000D03*
X82420000Y26880000D03*
X84960000Y26880000D03*
X87500000Y26880000D03*
X90040000Y26880000D03*
X92580000Y26880000D03*
X95120000Y26880000D03*
X97660000Y26880000D03*
X100200000Y26880000D03*
D10*
X45180000Y22500000D03*
D11*
X45180000Y19960000D03*
X45180000Y17420000D03*
X45180000Y14880000D03*
X52800000Y14880000D03*
X52800000Y17420000D03*
X52800000Y19960000D03*
X52800000Y22500000D03*
D12*
X44970000Y36000000D03*
D11*
X52590000Y36000000D03*
D12*
X52590000Y33000000D03*
D11*
X44970000Y33000000D03*
D12*
X44970000Y30000000D03*
D11*
X52590000Y30000000D03*
D12*
X80690000Y50900000D03*
D11*
X88310000Y50900000D03*
D14*
X74000000Y45700000D03*
D18*
X71460000Y45700000D03*
X68920000Y45700000D03*
D14*
X70620000Y60700000D03*
D18*
X73160000Y60700000D03*
X75700000Y60700000D03*
D14*
X88100000Y37600000D03*
D18*
X90640000Y37600000D03*
X93180000Y37600000D03*
D12*
X51630000Y48100000D03*
X46630000Y48100000D03*
X51380000Y39100000D03*
X46380000Y39100000D03*
D14*
X102200000Y107500000D03*
D18*
X102200000Y110040000D03*
X102200000Y112580000D03*
X102200000Y115120000D03*
X102200000Y117660000D03*
X102200000Y120200000D03*
D14*
X147600000Y107550000D03*
D18*
X147600000Y110090000D03*
X147600000Y112630000D03*
X147600000Y115170000D03*
X147600000Y117710000D03*
X147600000Y120250000D03*
D14*
X154550000Y92250000D03*
D15*
X154550000Y89710000D03*
X154550000Y87170000D03*
X154550000Y84630000D03*
X154550000Y82090000D03*
X154550000Y79550000D03*
X154550000Y77010000D03*
X154550000Y74470000D03*
X154550000Y71930000D03*
X154550000Y69390000D03*
X154550000Y66850000D03*
X154550000Y64310000D03*
X154550000Y61770000D03*
X154550000Y59230000D03*
X154550000Y56690000D03*
X154550000Y54150000D03*
X154550000Y51610000D03*
X154550000Y49070000D03*
X154550000Y46530000D03*
X154550000Y43990000D03*
X154550000Y41450000D03*
X154550000Y38910000D03*
X154550000Y36370000D03*
X154550000Y33830000D03*
X154550000Y31290000D03*
X154550000Y28750000D03*
X154550000Y26210000D03*
X154550000Y23670000D03*
X154550000Y21130000D03*
X154550000Y18590000D03*
X154550000Y16050000D03*
X154550000Y13510000D03*
X152010000Y92250000D03*
X152010000Y89710000D03*
X152010000Y87170000D03*
X152010000Y84630000D03*
X152010000Y82090000D03*
X152010000Y79550000D03*
X152010000Y77010000D03*
X152010000Y74470000D03*
X152010000Y71930000D03*
X152010000Y69390000D03*
X152010000Y66850000D03*
X152010000Y64310000D03*
X152010000Y61770000D03*
X152010000Y59230000D03*
X152010000Y56690000D03*
X152010000Y54150000D03*
X152010000Y51610000D03*
X152010000Y49070000D03*
X152010000Y46530000D03*
X152010000Y43990000D03*
X152010000Y41450000D03*
X152010000Y38910000D03*
X152010000Y36370000D03*
X152010000Y33830000D03*
X152010000Y31290000D03*
X152010000Y28750000D03*
X152010000Y26210000D03*
X152010000Y23670000D03*
X152010000Y21130000D03*
X152010000Y18590000D03*
X152010000Y16050000D03*
X152010000Y13510000D03*
D12*
X19300000Y19800000D03*
X14300000Y19800000D03*
X16100000Y12100000D03*
X21100000Y12100000D03*
X59380000Y14800000D03*
X64380000Y14800000D03*
X11720000Y22900000D03*
D11*
X21880000Y22900000D03*
D12*
X11720000Y16700000D03*
D11*
X21880000Y16700000D03*
D12*
X12520000Y7100000D03*
D11*
X22680000Y7100000D03*
D12*
X12520000Y4000000D03*
D11*
X22680000Y4000000D03*
D12*
X56800000Y11800000D03*
D11*
X66960000Y11800000D03*
D12*
X64380000Y20800000D03*
X59380000Y20800000D03*
D14*
X7290000Y9510000D03*
D18*
X4750000Y9510000D03*
X7290000Y12050000D03*
X4750000Y12050000D03*
X7290000Y14590000D03*
X4750000Y14590000D03*
X7290000Y17130000D03*
X4750000Y17130000D03*
X7290000Y19670000D03*
X4750000Y19670000D03*
X7290000Y22210000D03*
X4750000Y22210000D03*
X7290000Y24750000D03*
X4750000Y24750000D03*
D12*
X12200000Y29390000D03*
D11*
X12200000Y37010000D03*
D12*
X53080000Y8700000D03*
D11*
X42920000Y8700000D03*
D12*
X53080000Y3100000D03*
D11*
X42920000Y3100000D03*
D12*
X21880000Y25900000D03*
D11*
X11720000Y25900000D03*
D10*
X127200000Y19240000D03*
D11*
X127200000Y16700000D03*
X127200000Y14160000D03*
X127200000Y11620000D03*
X127200000Y9080000D03*
X127200000Y6540000D03*
X127200000Y4000000D03*
X134820000Y4000000D03*
X134820000Y6540000D03*
X134820000Y9080000D03*
X134820000Y11620000D03*
X134820000Y14160000D03*
X134820000Y16700000D03*
X134820000Y19240000D03*
D14*
X102700000Y60040000D03*
D18*
X102700000Y57500000D03*
X102700000Y54960000D03*
D12*
X139340000Y77050000D03*
D11*
X146960000Y77050000D03*
D12*
X139340000Y74000000D03*
D11*
X146960000Y74000000D03*
D12*
X139350000Y71000000D03*
D11*
X146970000Y71000000D03*
D12*
X139350000Y68000000D03*
D11*
X146970000Y68000000D03*
D12*
X139340000Y65000000D03*
D11*
X146960000Y65000000D03*
D12*
X146920000Y51200000D03*
D11*
X139300000Y51200000D03*
D12*
X146910000Y45200000D03*
D11*
X139290000Y45200000D03*
D12*
X146910000Y42200000D03*
D11*
X139290000Y42200000D03*
D12*
X146910000Y39200000D03*
D11*
X139290000Y39200000D03*
D12*
X146910000Y36200000D03*
D11*
X139290000Y36200000D03*
D12*
X146910000Y33200000D03*
D11*
X139290000Y33200000D03*
D12*
X146910000Y30200000D03*
D11*
X139290000Y30200000D03*
D12*
X146910000Y27200000D03*
D11*
X139290000Y27200000D03*
D12*
X146910000Y24200000D03*
D11*
X139290000Y24200000D03*
D12*
X146910000Y21200000D03*
D11*
X139290000Y21200000D03*
D12*
X146910000Y18200000D03*
D11*
X139290000Y18200000D03*
D12*
X146910000Y15200000D03*
D11*
X139290000Y15200000D03*
D12*
X146910000Y12200000D03*
D11*
X139290000Y12200000D03*
D10*
X44190000Y5900000D03*
D11*
X51810000Y5900000D03*
D12*
X42920000Y11700000D03*
D11*
X53080000Y11700000D03*
D12*
X56800000Y23800000D03*
D11*
X66960000Y23800000D03*
D12*
X139340000Y62000000D03*
D11*
X146960000Y62000000D03*
D10*
X30500000Y19725000D03*
D11*
X30500000Y17185000D03*
X30500000Y14645000D03*
X30500000Y12105000D03*
X30500000Y9565000D03*
X30500000Y7025000D03*
X30500000Y4485000D03*
X38120000Y4485000D03*
X38120000Y7025000D03*
X38120000Y9565000D03*
X38120000Y12105000D03*
X38120000Y14645000D03*
X38120000Y17185000D03*
X38120000Y19725000D03*
D14*
X88320000Y64400000D03*
D18*
X90860000Y64400000D03*
X93400000Y64400000D03*
D14*
X79400000Y107480000D03*
D18*
X79400000Y110020000D03*
X79400000Y112560000D03*
X79400000Y115100000D03*
X79400000Y117640000D03*
D10*
X127100000Y38125000D03*
D11*
X127100000Y35585000D03*
X127100000Y33045000D03*
X127100000Y30505000D03*
X127100000Y27965000D03*
X127100000Y25425000D03*
X127100000Y22885000D03*
X134720000Y22885000D03*
X134720000Y25425000D03*
X134720000Y27965000D03*
X134720000Y30505000D03*
X134720000Y33045000D03*
X134720000Y35585000D03*
X134720000Y38125000D03*
D10*
X127100000Y56800000D03*
D11*
X127100000Y54260000D03*
X127100000Y51720000D03*
X127100000Y49180000D03*
X127100000Y46640000D03*
X127100000Y44100000D03*
X127100000Y41560000D03*
X134720000Y41560000D03*
X134720000Y44100000D03*
X134720000Y46640000D03*
X134720000Y49180000D03*
X134720000Y51720000D03*
X134720000Y54260000D03*
X134720000Y56800000D03*
D12*
X146910000Y48200000D03*
D11*
X139290000Y48200000D03*
D12*
X146920000Y54200000D03*
D11*
X139300000Y54200000D03*
D12*
X146920000Y57200000D03*
D11*
X139300000Y57200000D03*
D10*
X113280000Y21900000D03*
D11*
X113280000Y19360000D03*
X113280000Y16820000D03*
X113280000Y14280000D03*
X113280000Y11740000D03*
X113280000Y9200000D03*
X113280000Y6660000D03*
X113280000Y4120000D03*
X120900000Y4120000D03*
X120900000Y6660000D03*
X120900000Y9200000D03*
X120900000Y11740000D03*
X120900000Y14280000D03*
X120900000Y16820000D03*
X120900000Y19360000D03*
X120900000Y21900000D03*
D14*
X120230000Y121950000D03*
D18*
X117690000Y121950000D03*
X115150000Y121950000D03*
X112610000Y121950000D03*
D14*
X125400000Y107500000D03*
D18*
X125400000Y110040000D03*
X125400000Y112580000D03*
X125400000Y115120000D03*
X125400000Y117660000D03*
X125400000Y120200000D03*
D12*
X59380000Y8700000D03*
X64380000Y8700000D03*
X43800000Y42100000D03*
D11*
X53960000Y42100000D03*
D14*
X95020000Y122100000D03*
D18*
X95020000Y119560000D03*
X92480000Y122100000D03*
X92480000Y119560000D03*
X89940000Y122100000D03*
X89940000Y119560000D03*
X87400000Y122100000D03*
X87400000Y119560000D03*
D14*
X148000000Y92240000D03*
D18*
X148000000Y89700000D03*
X148000000Y87160000D03*
D10*
X13100000Y12100000D03*
D12*
X10600000Y12100000D03*
X64380000Y17800000D03*
X59380000Y17800000D03*
X51630000Y45100000D03*
X46630000Y45100000D03*
D19*
X106680000Y17780000D03*
X93980000Y17780000D03*
X106680000Y7620000D03*
X104140000Y15240000D03*
X93980000Y10160000D03*
X86360000Y15240000D03*
X99060000Y22860000D03*
X101600000Y20320000D03*
X91440000Y12700000D03*
X109220000Y17780000D03*
X96520000Y7620000D03*
X101600000Y15240000D03*
X91440000Y10160000D03*
X99060000Y12700000D03*
X86360000Y10160000D03*
X88900000Y17780000D03*
X93980000Y22860000D03*
X91440000Y7620000D03*
X101600000Y2540000D03*
X88900000Y12700000D03*
X109220000Y10160000D03*
X88900000Y5080000D03*
X96520000Y10160000D03*
X99060000Y20320000D03*
X109220000Y5080000D03*
X93980000Y20320000D03*
X101600000Y7620000D03*
X91440000Y17780000D03*
X93980000Y12700000D03*
X88900000Y22860000D03*
X88900000Y10160000D03*
X91440000Y2540000D03*
X86360000Y20320000D03*
X88900000Y7620000D03*
X104140000Y22860000D03*
X86360000Y12700000D03*
X109220000Y7620000D03*
X101600000Y10160000D03*
X93980000Y15240000D03*
X104140000Y12700000D03*
X101600000Y17780000D03*
X96520000Y12700000D03*
X96520000Y15240000D03*
X106680000Y20320000D03*
X109220000Y22860000D03*
X99060000Y17780000D03*
X88900000Y15240000D03*
X88900000Y2540000D03*
X101600000Y5080000D03*
X109220000Y2540000D03*
X96520000Y17780000D03*
X104140000Y10160000D03*
X99060000Y15240000D03*
X106680000Y10160000D03*
X104140000Y2540000D03*
X106680000Y22860000D03*
X88900000Y20320000D03*
X104140000Y5080000D03*
X101600000Y22860000D03*
X96520000Y5080000D03*
X93980000Y5080000D03*
X109220000Y20320000D03*
X93980000Y2540000D03*
X104140000Y17780000D03*
X109220000Y12700000D03*
X106680000Y12700000D03*
X99060000Y7620000D03*
X91440000Y22860000D03*
X101600000Y12700000D03*
X99060000Y5080000D03*
X96520000Y22860000D03*
X109220000Y15240000D03*
X91440000Y5080000D03*
X104140000Y20320000D03*
X106680000Y5080000D03*
X96520000Y20320000D03*
X91440000Y15240000D03*
X96520000Y2540000D03*
X99060000Y2540000D03*
X86360000Y5080000D03*
X86360000Y22860000D03*
X106680000Y15240000D03*
X91440000Y20320000D03*
X104140000Y7620000D03*
X86360000Y2540000D03*
X106680000Y2540000D03*
X99060000Y10160000D03*
X93980000Y7620000D03*
X86360000Y7620000D03*
X86360000Y17780000D03*
D20*
X99740000Y118900000D03*
X50600000Y118100000D03*
X50600000Y110060000D03*
X128250000Y118950000D03*
X48100500Y107500000D03*
X97100000Y79200000D03*
X48100500Y78300000D03*
X24100000Y64900000D03*
X116800000Y49830000D03*
X24100000Y92280000D03*
X40300000Y85900000D03*
X40300000Y91000000D03*
X40300000Y102500000D03*
X116800000Y84650000D03*
X40900000Y96150000D03*
X40900000Y83400000D03*
X25300000Y64910000D03*
X117400000Y82005000D03*
X117400000Y52400000D03*
X40900000Y99900000D03*
X25300000Y94820000D03*
X22300000Y88400000D03*
X116200000Y47300000D03*
X22300000Y62400000D03*
X41500000Y88500000D03*
X116200000Y87210000D03*
X41500000Y97360000D03*
X23500000Y59800000D03*
X23500000Y87200000D03*
X115600000Y89800000D03*
X43600000Y91000000D03*
X115600000Y44750000D03*
X23500000Y93150000D03*
X43600000Y94800000D03*
X28300000Y98600000D03*
X49200000Y98600000D03*
X28300000Y39500000D03*
X49200000Y92300000D03*
X107300000Y92165000D03*
X107300000Y54900000D03*
X49800000Y101200000D03*
X27700000Y42100000D03*
X49800000Y94820000D03*
X107900000Y94830000D03*
X107900000Y57500000D03*
X27700000Y101150000D03*
X25900000Y97360000D03*
X55000000Y84665000D03*
X44400000Y84200000D03*
X25900000Y91000000D03*
X118000000Y54900000D03*
X25900000Y62350000D03*
X51300000Y84200000D03*
X118000000Y83400000D03*
X44400000Y89850000D03*
X78500000Y96100000D03*
X115000000Y42200000D03*
X22900000Y57300000D03*
X39700000Y93600000D03*
X22900000Y84000000D03*
X115000000Y92290000D03*
X39700000Y87200000D03*
X22900000Y87800000D03*
X77550000Y98550000D03*
X50700000Y89300000D03*
X113200000Y89100000D03*
X42050000Y102500000D03*
X24700000Y102400000D03*
X113200000Y60000000D03*
X43650000Y89300000D03*
X24700000Y57300000D03*
X43650000Y84600000D03*
X42050000Y84660000D03*
X56000000Y89745000D03*
X73400000Y101200000D03*
X118600000Y57450000D03*
X26500000Y59850000D03*
X118600000Y85900000D03*
X42700000Y87300000D03*
X26500000Y99900000D03*
X42700000Y82100000D03*
X26500000Y83400000D03*
X51200000Y87300000D03*
X55200000Y87200000D03*
X28150000Y108800000D03*
X28150000Y103700000D03*
X65800000Y110065000D03*
X54700000Y112600000D03*
X54700000Y108800000D03*
X49800000Y106300000D03*
X49800000Y115140000D03*
X51450000Y98600000D03*
X18000000Y63600000D03*
D21*
X51500000Y82120000D03*
D20*
X18000000Y79600000D03*
X18330000Y36970000D03*
X18600000Y42100000D03*
D21*
X56000000Y70700000D03*
D20*
X18600000Y69500000D03*
D21*
X56000000Y73800000D03*
D20*
X45050000Y68100000D03*
X45050000Y106300000D03*
X83200000Y77200000D03*
X100500000Y94800000D03*
X100500000Y78500000D03*
X85700000Y77500000D03*
X90310500Y77500000D03*
X90250000Y96275000D03*
X88300000Y96225000D03*
X90849500Y80300000D03*
X130200000Y94800000D03*
X130200000Y80300000D03*
X65800000Y72100000D03*
X17100000Y36970000D03*
X17400000Y77150000D03*
X19200000Y84400000D03*
X19200000Y38200000D03*
X19200000Y31900000D03*
X28900000Y34400000D03*
X28900000Y63600000D03*
X141500000Y120220000D03*
X48700000Y120200000D03*
X58000000Y71960000D03*
X28900000Y73200000D03*
X114400000Y120200000D03*
X114400000Y65100000D03*
X28900000Y107520000D03*
X141500000Y112600000D03*
X48700000Y71960000D03*
X58000000Y39100000D03*
X27150500Y68100000D03*
X108500000Y101150000D03*
X27150000Y108800000D03*
X50600000Y101200000D03*
X50550000Y69450000D03*
X108500000Y65100000D03*
X27150500Y51100000D03*
D21*
X59200000Y103700000D03*
D20*
X56800000Y75800000D03*
X57200000Y38900000D03*
X19800000Y43300000D03*
X95120000Y31100000D03*
X19800000Y74500000D03*
X19900000Y31900000D03*
X19900000Y40800000D03*
X79400000Y102450000D03*
X55400000Y111300000D03*
X55400000Y117600000D03*
D21*
X102200000Y102500000D03*
D20*
X125400000Y102650000D03*
X113800000Y75230000D03*
X113800000Y63800000D03*
D21*
X119200000Y68900000D03*
D20*
X122700000Y72700000D03*
D21*
X109700000Y77100000D03*
X109700000Y70150000D03*
D20*
X116200000Y26970000D03*
X116200000Y46000000D03*
X116800000Y48600000D03*
X116800000Y29500000D03*
X117400000Y32050000D03*
X117400000Y51100000D03*
X119400000Y37100000D03*
X119400000Y43500000D03*
X119400000Y32100000D03*
X119400000Y35900000D03*
X118850500Y29500000D03*
X118850500Y38400000D03*
X118100000Y27000000D03*
X118100000Y41100000D03*
X114400000Y34600000D03*
X114400000Y53600000D03*
X113800000Y37100000D03*
X113800000Y56100000D03*
X113200000Y39670000D03*
X113200000Y58700000D03*
X112600000Y61200000D03*
X112600000Y42200000D03*
X109100000Y75200000D03*
X109100000Y66300000D03*
X109800000Y28200000D03*
D21*
X80249000Y28700000D03*
D20*
X109800000Y67600000D03*
D21*
X110324500Y30800000D03*
X110324500Y44800000D03*
X79724500Y31800000D03*
X107400000Y26000000D03*
X117200000Y26000000D03*
X117200000Y19360000D03*
D20*
X107400000Y47300000D03*
D21*
X117700000Y16820000D03*
X107950000Y24600000D03*
D20*
X107950000Y49800000D03*
D21*
X117725000Y25400000D03*
X118200000Y14280000D03*
X118800000Y27600000D03*
D20*
X108500000Y52400000D03*
D21*
X108500000Y27600000D03*
X43900000Y15900000D03*
D20*
X115500000Y13000000D03*
X114900000Y15500000D03*
X116600000Y20600000D03*
X116600000Y11740000D03*
X115949500Y14300000D03*
X115949500Y24100000D03*
X115400000Y24800000D03*
X115400000Y16800000D03*
X114800000Y28200000D03*
X114800000Y19360000D03*
X113300000Y30800000D03*
D22*
X60700000Y112605000D02*
X57195000Y112605000D01*
X61945000Y113850000D02*
X60700000Y112605000D01*
X104710000Y113850000D02*
X84195000Y113850000D01*
X127035000Y113900000D02*
X107400000Y113900000D01*
X81705000Y113850000D02*
X61945000Y113850000D01*
X46400000Y113800000D02*
X45060000Y115140000D01*
X45060000Y115140000D02*
X38000000Y115140000D01*
X84195000Y113850000D02*
X82950000Y112605000D01*
X56000000Y113800000D02*
X46400000Y113800000D01*
X57195000Y112605000D02*
X56000000Y113800000D01*
X107400000Y113900000D02*
X106110000Y112610000D01*
X106110000Y112610000D02*
X105950000Y112610000D01*
X128325000Y112610000D02*
X127035000Y113900000D01*
X105950000Y112610000D02*
X104710000Y113850000D01*
X82950000Y112605000D02*
X81705000Y113850000D01*
X51600000Y119100000D02*
X80300000Y119100000D01*
X50600000Y110060000D02*
X38000000Y110060000D01*
X97150000Y118900000D02*
X99740000Y118900000D01*
X81300000Y118100000D02*
X96350000Y118100000D01*
X99790000Y118950000D02*
X99740000Y118900000D01*
X80300000Y119100000D02*
X81300000Y118100000D01*
X96350000Y118100000D02*
X97150000Y118900000D01*
X50600000Y118100000D02*
X51600000Y119100000D01*
X128250000Y118950000D02*
X99790000Y118950000D01*
X97100000Y79200000D02*
X70300000Y79200000D01*
X59600000Y79900000D02*
X58000000Y78300000D01*
X48080500Y107520000D02*
X48100500Y107500000D01*
X69600000Y79900000D02*
X59600000Y79900000D01*
X38000000Y107520000D02*
X48080500Y107520000D01*
X58000000Y78300000D02*
X48100500Y78300000D01*
X70300000Y79200000D02*
X69600000Y79900000D01*
X116800000Y84650000D02*
X113987500Y84650000D01*
X93275000Y85850000D02*
X81800000Y85850000D01*
X112737500Y85900000D02*
X105000000Y85900000D01*
X122870000Y84670000D02*
X124100000Y85900000D01*
X24090000Y64910000D02*
X15250000Y64910000D01*
X69325000Y85900000D02*
X40300000Y85900000D01*
X40240000Y102440000D02*
X38000000Y102440000D01*
X116800000Y84650000D02*
X116820000Y84670000D01*
X33000000Y91000000D02*
X31720000Y92280000D01*
X24100000Y92280000D02*
X23180000Y92280000D01*
X103765000Y84665000D02*
X94460000Y84665000D01*
X23180000Y92280000D02*
X21900000Y91000000D01*
X142060000Y85900000D02*
X143565000Y84395000D01*
X40300000Y102500000D02*
X40240000Y102440000D01*
X40300000Y91000000D02*
X33000000Y91000000D01*
X113987500Y84650000D02*
X112737500Y85900000D01*
X9100000Y91000000D02*
X8450000Y90350000D01*
X105000000Y85900000D02*
X103765000Y84665000D01*
X124100000Y85900000D02*
X142060000Y85900000D01*
X116820000Y84670000D02*
X122870000Y84670000D01*
X94460000Y84665000D02*
X93275000Y85850000D01*
X116800000Y49830000D02*
X120990000Y49830000D01*
X24100000Y64900000D02*
X24090000Y64910000D01*
X21900000Y91000000D02*
X9100000Y91000000D01*
X31720000Y92280000D02*
X30490000Y92280000D01*
X81800000Y85850000D02*
X80615000Y84665000D01*
X80615000Y84665000D02*
X70560000Y84665000D01*
X24100000Y92280000D02*
X30490000Y92280000D01*
X8450000Y90350000D02*
X6790000Y90350000D01*
X70560000Y84665000D02*
X69325000Y85900000D01*
X124250000Y83400000D02*
X142020000Y83400000D01*
X31520000Y94820000D02*
X30490000Y94820000D01*
X22000000Y93500000D02*
X23320000Y94820000D01*
X25300000Y64910000D02*
X30490000Y64910000D01*
X23320000Y94820000D02*
X25300000Y94820000D01*
X70210000Y82315000D02*
X80815000Y82315000D01*
X9100000Y93500000D02*
X22000000Y93500000D01*
X142020000Y83400000D02*
X143565000Y81855000D01*
X69125000Y83400000D02*
X70210000Y82315000D01*
X112550000Y83400000D02*
X113945000Y82005000D01*
X6790000Y92890000D02*
X8490000Y92890000D01*
X40900000Y83400000D02*
X69125000Y83400000D01*
X105050000Y83400000D02*
X112550000Y83400000D01*
X80815000Y82315000D02*
X81900000Y83400000D01*
X8490000Y92890000D02*
X9100000Y93500000D01*
X25300000Y94820000D02*
X30490000Y94820000D01*
X122855000Y82005000D02*
X124250000Y83400000D01*
X38000000Y99900000D02*
X40900000Y99900000D01*
X117430000Y52370000D02*
X120990000Y52370000D01*
X94475000Y82125000D02*
X103775000Y82125000D01*
X103775000Y82125000D02*
X105050000Y83400000D01*
X113945000Y82005000D02*
X117400000Y82005000D01*
X93200000Y83400000D02*
X94475000Y82125000D01*
X40900000Y96150000D02*
X32850000Y96150000D01*
X81900000Y83400000D02*
X93200000Y83400000D01*
X117400000Y52400000D02*
X117430000Y52370000D01*
X32850000Y96150000D02*
X31520000Y94820000D01*
X117400000Y82005000D02*
X122855000Y82005000D01*
X80745000Y87395000D02*
X71205000Y87395000D01*
X22300000Y62400000D02*
X22270000Y62370000D01*
X116200000Y87210000D02*
X113890000Y87210000D01*
X116200000Y87210000D02*
X122860000Y87210000D01*
X120990000Y47290000D02*
X116210000Y47290000D01*
X71205000Y87395000D02*
X70100000Y88500000D01*
X103805000Y87205000D02*
X94520000Y87205000D01*
X94520000Y87205000D02*
X93325000Y88400000D01*
X112600000Y88500000D02*
X105100000Y88500000D01*
X22300000Y88400000D02*
X23640000Y89740000D01*
X113890000Y87210000D02*
X112600000Y88500000D01*
X23640000Y89740000D02*
X30490000Y89740000D01*
X124150000Y88500000D02*
X142000000Y88500000D01*
X105100000Y88500000D02*
X103805000Y87205000D01*
X22270000Y62370000D02*
X15250000Y62370000D01*
X122860000Y87210000D02*
X124150000Y88500000D01*
X41500000Y97360000D02*
X38000000Y97360000D01*
X8500000Y87810000D02*
X6790000Y87810000D01*
X9090000Y88400000D02*
X8500000Y87810000D01*
X22300000Y88400000D02*
X9090000Y88400000D01*
X81750000Y88400000D02*
X80745000Y87395000D01*
X41450000Y88450000D02*
X41500000Y88500000D01*
X70100000Y88500000D02*
X41500000Y88500000D01*
X93325000Y88400000D02*
X81750000Y88400000D01*
X32900000Y88450000D02*
X41450000Y88450000D01*
X31610000Y89740000D02*
X32900000Y88450000D01*
X142000000Y88500000D02*
X143565000Y86935000D01*
X30490000Y89740000D02*
X31610000Y89740000D01*
X116210000Y47290000D02*
X116200000Y47300000D01*
X22000000Y85900000D02*
X9160000Y85900000D01*
X124050000Y91000000D02*
X142040000Y91000000D01*
X122850000Y89800000D02*
X124050000Y91000000D01*
X23500000Y59800000D02*
X23470000Y59830000D01*
X112650000Y91050000D02*
X113900000Y89800000D01*
X32770000Y94820000D02*
X38000000Y94820000D01*
X105150000Y91050000D02*
X112650000Y91050000D01*
X23470000Y59830000D02*
X15250000Y59830000D01*
X8530000Y85270000D02*
X6790000Y85270000D01*
X23500000Y87200000D02*
X30490000Y87200000D01*
X43600000Y94800000D02*
X43580000Y94820000D01*
X94380000Y89745000D02*
X103845000Y89745000D01*
X9160000Y85900000D02*
X8530000Y85270000D01*
X23300000Y87200000D02*
X22000000Y85900000D01*
X43600000Y91000000D02*
X70750000Y91000000D01*
X115600000Y89800000D02*
X122850000Y89800000D01*
X113900000Y89800000D02*
X115600000Y89800000D01*
X31450000Y93500000D02*
X32770000Y94820000D01*
X72005000Y89745000D02*
X80595000Y89745000D01*
X93100000Y91025000D02*
X94380000Y89745000D01*
X142040000Y91000000D02*
X143565000Y89475000D01*
X23850000Y93500000D02*
X31450000Y93500000D01*
X23500000Y93150000D02*
X23850000Y93500000D01*
X23500000Y87200000D02*
X23300000Y87200000D01*
X103845000Y89745000D02*
X105150000Y91050000D01*
X43580000Y94820000D02*
X38000000Y94820000D01*
X81875000Y91025000D02*
X93100000Y91025000D01*
X70750000Y91000000D02*
X72005000Y89745000D01*
X115600000Y44750000D02*
X120990000Y44750000D01*
X80595000Y89745000D02*
X81875000Y91025000D01*
X49200000Y98600000D02*
X28300000Y98600000D01*
X80600000Y91050000D02*
X72475000Y91050000D01*
X122750000Y91050000D02*
X113750000Y91050000D01*
X128325000Y92015000D02*
X123715000Y92015000D01*
X107290000Y54910000D02*
X107300000Y54900000D01*
X22060000Y97360000D02*
X9360000Y97360000D01*
X112635000Y92165000D02*
X107300000Y92165000D01*
X93140000Y92285000D02*
X81835000Y92285000D01*
X72475000Y91050000D02*
X71240000Y92285000D01*
X28300000Y98600000D02*
X23300000Y98600000D01*
X105750000Y54910000D02*
X107290000Y54910000D01*
X107300000Y92165000D02*
X104890000Y92165000D01*
X30490000Y39510000D02*
X28310000Y39510000D01*
X123715000Y92015000D02*
X122750000Y91050000D01*
X49220000Y92280000D02*
X53240000Y92280000D01*
X81835000Y92285000D02*
X80600000Y91050000D01*
X28310000Y39510000D02*
X28300000Y39500000D01*
X5495000Y96675000D02*
X4250000Y95430000D01*
X103725000Y91000000D02*
X94425000Y91000000D01*
X94425000Y91000000D02*
X93140000Y92285000D01*
X113750000Y91050000D02*
X112635000Y92165000D01*
X9360000Y97360000D02*
X8675000Y96675000D01*
X8675000Y96675000D02*
X5495000Y96675000D01*
X71240000Y92285000D02*
X53245000Y92285000D01*
X23300000Y98600000D02*
X22060000Y97360000D01*
X53245000Y92285000D02*
X53240000Y92280000D01*
X104890000Y92165000D02*
X103725000Y91000000D01*
X104930000Y94830000D02*
X103600000Y93500000D01*
X27700000Y101150000D02*
X23250000Y101150000D01*
X80200000Y93500000D02*
X72525000Y93500000D01*
X122750000Y93500000D02*
X123805000Y94555000D01*
X94425000Y93500000D02*
X92910000Y95015000D01*
X112470000Y94830000D02*
X113800000Y93500000D01*
X27750000Y42050000D02*
X27700000Y42100000D01*
X5505000Y99225000D02*
X4250000Y97970000D01*
X27750000Y101200000D02*
X27700000Y101150000D01*
X22000000Y99900000D02*
X9218198Y99900000D01*
X107850000Y57450000D02*
X107900000Y57500000D01*
X49800000Y94820000D02*
X53240000Y94820000D01*
X92910000Y95015000D02*
X81715000Y95015000D01*
X49800000Y101200000D02*
X27750000Y101200000D01*
X113800000Y93500000D02*
X122750000Y93500000D01*
X105750000Y57450000D02*
X107850000Y57450000D01*
X9218198Y99900000D02*
X8543198Y99225000D01*
X23250000Y101150000D02*
X22000000Y99900000D01*
X81715000Y95015000D02*
X80200000Y93500000D01*
X53245000Y94825000D02*
X53240000Y94820000D01*
X123805000Y94555000D02*
X128325000Y94555000D01*
X107900000Y94830000D02*
X112470000Y94830000D01*
X72525000Y93500000D02*
X71200000Y94825000D01*
X107900000Y94830000D02*
X104930000Y94830000D01*
X30490000Y42050000D02*
X27750000Y42050000D01*
X103600000Y93500000D02*
X94425000Y93500000D01*
X8543198Y99225000D02*
X5505000Y99225000D01*
X71200000Y94825000D02*
X53245000Y94825000D01*
X25920000Y62370000D02*
X25900000Y62350000D01*
X80600000Y83400000D02*
X70500000Y83400000D01*
X113793750Y83400000D02*
X112523750Y84670000D01*
X31800000Y91000000D02*
X33060000Y89740000D01*
X104945000Y84670000D02*
X103815000Y83540000D01*
X25900000Y91000000D02*
X31800000Y91000000D01*
X8630000Y95430000D02*
X9300000Y96100000D01*
X122850000Y83400000D02*
X123845000Y84395000D01*
X30495000Y62375000D02*
X30490000Y62370000D01*
X120990000Y54910000D02*
X118010000Y54910000D01*
X94260000Y83540000D02*
X93135000Y84665000D01*
X55000000Y84665000D02*
X60700000Y84665000D01*
X25900000Y97360000D02*
X30490000Y97360000D01*
X93135000Y84665000D02*
X81865000Y84665000D01*
X112523750Y84670000D02*
X104945000Y84670000D01*
X44400000Y84200000D02*
X51300000Y84200000D01*
X9300000Y96100000D02*
X22000000Y96100000D01*
X38160000Y89900000D02*
X38000000Y89740000D01*
X44400000Y89850000D02*
X44350000Y89900000D01*
X69235000Y84665000D02*
X60700000Y84665000D01*
X118000000Y83400000D02*
X122850000Y83400000D01*
X70500000Y83400000D02*
X69235000Y84665000D01*
X103815000Y83540000D02*
X94260000Y83540000D01*
X118010000Y54910000D02*
X118000000Y54900000D01*
X81865000Y84665000D02*
X80600000Y83400000D01*
X22000000Y96100000D02*
X23260000Y97360000D01*
X6790000Y95430000D02*
X8630000Y95430000D01*
X123845000Y84395000D02*
X128325000Y84395000D01*
X23260000Y97360000D02*
X25900000Y97360000D01*
X30490000Y62370000D02*
X25920000Y62370000D01*
X44350000Y89900000D02*
X38160000Y89900000D01*
X33060000Y89740000D02*
X38000000Y89740000D01*
X118000000Y83400000D02*
X113793750Y83400000D01*
X72425000Y96100000D02*
X78500000Y96100000D01*
X126120000Y96120000D02*
X127370000Y97370000D01*
X60700000Y97365000D02*
X53245000Y97365000D01*
X113780000Y96120000D02*
X126120000Y96120000D01*
X60700000Y97365000D02*
X71160000Y97365000D01*
X78500000Y96100000D02*
X80350000Y96100000D01*
X53245000Y97365000D02*
X53240000Y97360000D01*
X127370000Y97370000D02*
X128325000Y97370000D01*
X92920000Y97555000D02*
X94400000Y96075000D01*
X104970000Y97370000D02*
X112530000Y97370000D01*
X112530000Y97370000D02*
X113780000Y96120000D01*
X80350000Y96100000D02*
X81805000Y97555000D01*
X103675000Y96075000D02*
X104970000Y97370000D01*
X94400000Y96075000D02*
X103675000Y96075000D01*
X81805000Y97555000D02*
X92920000Y97555000D01*
X71160000Y97365000D02*
X72425000Y96100000D01*
X115000000Y92290000D02*
X122840000Y92290000D01*
X103585000Y92285000D02*
X94340000Y92285000D01*
X124150000Y93600000D02*
X141980000Y93600000D01*
X81875000Y93525000D02*
X80635000Y92285000D01*
X94340000Y92285000D02*
X93100000Y93525000D01*
X23560000Y84660000D02*
X30490000Y84660000D01*
X22900000Y87800000D02*
X23550000Y88450000D01*
X120990000Y42210000D02*
X115010000Y42210000D01*
X23550000Y88450000D02*
X31600000Y88450000D01*
X104880000Y93580000D02*
X103585000Y92285000D01*
X8530000Y82730000D02*
X6790000Y82730000D01*
X113910000Y92290000D02*
X112620000Y93580000D01*
X141980000Y93600000D02*
X143565000Y92015000D01*
X115000000Y92290000D02*
X113910000Y92290000D01*
X9200000Y83400000D02*
X8530000Y82730000D01*
X22890000Y57290000D02*
X15250000Y57290000D01*
X32850000Y87200000D02*
X38000000Y87200000D01*
X22900000Y84000000D02*
X23560000Y84660000D01*
X122840000Y92290000D02*
X124150000Y93600000D01*
X22900000Y57300000D02*
X22890000Y57290000D01*
X31600000Y88450000D02*
X32850000Y87200000D01*
X22900000Y84000000D02*
X22300000Y83400000D01*
X112620000Y93580000D02*
X104880000Y93580000D01*
X80635000Y92285000D02*
X72465000Y92285000D01*
X71150000Y93600000D02*
X39700000Y93600000D01*
X115010000Y42210000D02*
X115000000Y42200000D01*
X72465000Y92285000D02*
X71150000Y93600000D01*
X93100000Y93525000D02*
X81875000Y93525000D01*
X22300000Y83400000D02*
X9200000Y83400000D01*
X38000000Y87200000D02*
X39700000Y87200000D01*
X113800000Y98600000D02*
X126000000Y98600000D01*
X81755000Y99905000D02*
X93220000Y99905000D01*
X103680010Y98680010D02*
X104910000Y99910000D01*
X104910000Y99910000D02*
X112490000Y99910000D01*
X127310000Y99910000D02*
X128325000Y99910000D01*
X77500000Y98600000D02*
X72425000Y98600000D01*
X126000000Y98600000D02*
X127310000Y99910000D01*
X80400000Y98550000D02*
X81755000Y99905000D01*
X77550000Y98550000D02*
X77500000Y98600000D01*
X93220000Y99905000D02*
X94444990Y98680010D01*
X94444990Y98680010D02*
X103680010Y98680010D01*
X112490000Y99910000D02*
X113800000Y98600000D01*
X71125000Y99900000D02*
X53240000Y99900000D01*
X72425000Y98600000D02*
X71125000Y99900000D01*
X77550000Y98550000D02*
X80400000Y98550000D01*
X42050000Y102500000D02*
X40850000Y103700000D01*
X6790000Y100510000D02*
X8510000Y100510000D01*
X40850000Y103700000D02*
X31750000Y103700000D01*
X94525000Y88400000D02*
X93180000Y89745000D01*
X113200000Y89100000D02*
X112550000Y89750000D01*
X8510000Y100510000D02*
X9200000Y101200000D01*
X56000000Y89745000D02*
X60700000Y89745000D01*
X113210000Y59990000D02*
X120990000Y59990000D01*
X23240000Y102440000D02*
X30490000Y102440000D01*
X43650000Y84600000D02*
X43590000Y84660000D01*
X24700000Y57300000D02*
X24710000Y57290000D01*
X70455000Y89745000D02*
X60700000Y89745000D01*
X81695000Y89745000D02*
X80400000Y88450000D01*
X31750000Y103700000D02*
X30490000Y102440000D01*
X113850000Y88450000D02*
X122850000Y88450000D01*
X42050000Y84660000D02*
X38000000Y84660000D01*
X113200000Y89100000D02*
X113850000Y88450000D01*
X22000000Y101200000D02*
X23240000Y102440000D01*
X103725000Y88400000D02*
X94525000Y88400000D01*
X112550000Y89750000D02*
X105075000Y89750000D01*
X122850000Y88450000D02*
X123875000Y89475000D01*
X113200000Y60000000D02*
X113210000Y59990000D01*
X71750000Y88450000D02*
X70455000Y89745000D01*
X43650000Y89300000D02*
X50700000Y89300000D01*
X80400000Y88450000D02*
X71750000Y88450000D01*
X24710000Y57290000D02*
X30490000Y57290000D01*
X43590000Y84660000D02*
X38000000Y84660000D01*
X123875000Y89475000D02*
X128325000Y89475000D01*
X9200000Y101200000D02*
X22000000Y101200000D01*
X93180000Y89745000D02*
X81695000Y89745000D01*
X105075000Y89750000D02*
X103725000Y88400000D01*
X112700000Y102450000D02*
X114050000Y101100000D01*
X53240000Y102440000D02*
X53245000Y102445000D01*
X73400000Y101200000D02*
X80600000Y101200000D01*
X53245000Y102445000D02*
X71155000Y102445000D01*
X125900000Y101100000D02*
X127250000Y102450000D01*
X72400000Y101200000D02*
X73400000Y101200000D01*
X114050000Y101100000D02*
X125900000Y101100000D01*
X127250000Y102450000D02*
X128325000Y102450000D01*
X93380000Y102445000D02*
X94675000Y101150000D01*
X104950000Y102450000D02*
X112700000Y102450000D01*
X103650000Y101150000D02*
X104950000Y102450000D01*
X81845000Y102445000D02*
X93380000Y102445000D01*
X71155000Y102445000D02*
X72400000Y101200000D01*
X94675000Y101150000D02*
X103650000Y101150000D01*
X80600000Y101200000D02*
X81845000Y102445000D01*
X55205000Y87205000D02*
X60700000Y87205000D01*
X26500000Y99900000D02*
X23300000Y99900000D01*
X42700000Y87300000D02*
X51200000Y87300000D01*
X122800000Y85900000D02*
X123835000Y86935000D01*
X42680000Y82120000D02*
X38000000Y82120000D01*
X103625000Y85900000D02*
X94525000Y85900000D01*
X26500000Y83400000D02*
X31300000Y83400000D01*
X22000000Y98600000D02*
X9100000Y98600000D01*
X93220000Y87205000D02*
X81805000Y87205000D01*
X113825000Y85875000D02*
X112490000Y87210000D01*
X123835000Y86935000D02*
X128325000Y86935000D01*
X118600000Y85900000D02*
X122800000Y85900000D01*
X26520000Y59830000D02*
X30490000Y59830000D01*
X31300000Y83400000D02*
X32580000Y82120000D01*
X94525000Y85900000D02*
X93220000Y87205000D01*
X80500000Y85900000D02*
X70850000Y85900000D01*
X81805000Y87205000D02*
X80500000Y85900000D01*
X104935000Y87210000D02*
X103625000Y85900000D01*
X70850000Y85900000D02*
X69545000Y87205000D01*
X69545000Y87205000D02*
X60700000Y87205000D01*
X118600000Y57450000D02*
X120990000Y57450000D01*
X118600000Y85900000D02*
X118575000Y85875000D01*
X112490000Y87210000D02*
X104935000Y87210000D01*
X118575000Y85875000D02*
X113825000Y85875000D01*
X42700000Y82100000D02*
X42680000Y82120000D01*
X9100000Y98600000D02*
X8470000Y97970000D01*
X32580000Y82120000D02*
X38000000Y82120000D01*
X26500000Y99900000D02*
X30490000Y99900000D01*
X23300000Y99900000D02*
X22000000Y98600000D01*
X26500000Y59850000D02*
X26520000Y59830000D01*
X8470000Y97970000D02*
X6790000Y97970000D01*
X53240000Y104980000D02*
X53245000Y104985000D01*
X113762500Y103700000D02*
X127035000Y103700000D01*
X92765000Y104985000D02*
X94025000Y103725000D01*
X81985000Y104985000D02*
X92765000Y104985000D01*
X103775000Y103725000D02*
X105040000Y104990000D01*
X127035000Y103700000D02*
X128325000Y104990000D01*
X70740000Y104985000D02*
X72050000Y103675000D01*
X112472500Y104990000D02*
X113762500Y103700000D01*
X94025000Y103725000D02*
X103775000Y103725000D01*
X80675000Y103675000D02*
X81985000Y104985000D01*
X53245000Y104985000D02*
X70740000Y104985000D01*
X105040000Y104990000D02*
X112472500Y104990000D01*
X72050000Y103675000D02*
X80675000Y103675000D01*
X28150000Y108800000D02*
X51960000Y108800000D01*
X60695000Y107520000D02*
X60700000Y107525000D01*
X51960000Y108800000D02*
X53240000Y107520000D01*
X104780000Y107530000D02*
X112570000Y107530000D01*
X127615000Y107255000D02*
X128325000Y107255000D01*
X103000000Y105750000D02*
X104780000Y107530000D01*
X53240000Y107520000D02*
X60695000Y107520000D01*
X94325000Y106400000D02*
X99650000Y106400000D01*
X72425000Y106200000D02*
X80500000Y106200000D01*
X93010000Y107715000D02*
X94325000Y106400000D01*
X28150000Y103700000D02*
X9100000Y103700000D01*
X100300000Y105750000D02*
X103000000Y105750000D01*
X126360000Y106000000D02*
X127615000Y107255000D01*
X9100000Y103700000D02*
X8450000Y103050000D01*
X124100000Y106000000D02*
X126360000Y106000000D01*
X71100000Y107525000D02*
X72425000Y106200000D01*
X60700000Y107525000D02*
X71100000Y107525000D01*
X113800000Y106300000D02*
X123800000Y106300000D01*
X99650000Y106400000D02*
X100300000Y105750000D01*
X112570000Y107530000D02*
X113800000Y106300000D01*
X8450000Y103050000D02*
X6790000Y103050000D01*
X123800000Y106300000D02*
X124100000Y106000000D01*
X80500000Y106200000D02*
X82015000Y107715000D01*
X82015000Y107715000D02*
X93010000Y107715000D01*
X105950000Y110070000D02*
X107180000Y111300000D01*
X107180000Y111300000D02*
X126820000Y111300000D01*
X84185000Y111300000D02*
X104720000Y111300000D01*
X65800000Y110065000D02*
X71460000Y110065000D01*
X53245000Y110065000D02*
X65800000Y110065000D01*
X81850000Y111300000D02*
X83085000Y110065000D01*
X53240000Y110060000D02*
X53245000Y110065000D01*
X126820000Y111300000D02*
X128325000Y109795000D01*
X72695000Y111300000D02*
X81850000Y111300000D01*
X104720000Y111300000D02*
X105950000Y110070000D01*
X83085000Y110065000D02*
X83085000Y110200000D01*
X71460000Y110065000D02*
X72695000Y111300000D01*
X83085000Y110200000D02*
X84185000Y111300000D01*
X96915000Y108800000D02*
X98190000Y107525000D01*
X99415000Y108750000D02*
X119850000Y108750000D01*
X53240000Y112600000D02*
X54700000Y112600000D01*
X119970000Y108750000D02*
X119850000Y108750000D01*
X77215000Y108800000D02*
X96915000Y108800000D01*
X121190000Y107530000D02*
X119970000Y108750000D01*
X54700000Y108800000D02*
X74665000Y108800000D01*
X122510000Y108850000D02*
X141970000Y108850000D01*
X74665000Y108800000D02*
X75940000Y107525000D01*
X121190000Y107530000D02*
X122510000Y108850000D01*
X141970000Y108850000D02*
X143565000Y107255000D01*
X75940000Y107525000D02*
X77215000Y108800000D01*
X98190000Y107525000D02*
X99415000Y108750000D01*
X127700000Y106300000D02*
X142255000Y106300000D01*
X113710000Y104990000D02*
X126390000Y104990000D01*
X49800000Y106225000D02*
X49800000Y106300000D01*
X126390000Y104990000D02*
X127700000Y106300000D01*
X105200000Y106300000D02*
X112400000Y106300000D01*
X70906250Y106300000D02*
X72221250Y104985000D01*
X94340000Y104985000D02*
X103885000Y104985000D01*
X49800000Y106300000D02*
X70906250Y106300000D01*
X112400000Y106300000D02*
X113710000Y104990000D01*
X72221250Y104985000D02*
X80685000Y104985000D01*
X81900000Y106200000D02*
X93125000Y106200000D01*
X93125000Y106200000D02*
X94340000Y104985000D01*
X142255000Y106300000D02*
X143565000Y104990000D01*
X49800000Y115140000D02*
X53240000Y115140000D01*
X103885000Y104985000D02*
X105200000Y106300000D01*
X80685000Y104985000D02*
X81900000Y106200000D01*
X113730000Y97370000D02*
X126170000Y97370000D01*
X127400000Y98600000D02*
X142060000Y98600000D01*
X81880010Y98680010D02*
X92944990Y98680010D01*
X126170000Y97370000D02*
X127400000Y98600000D01*
X51450000Y98600000D02*
X71261410Y98600000D01*
X71261410Y98600000D02*
X72496410Y97365000D01*
X94260000Y97365000D02*
X103765000Y97365000D01*
X142060000Y98600000D02*
X143565000Y97095000D01*
X72496410Y97365000D02*
X80565000Y97365000D01*
X105050000Y98650000D02*
X112450000Y98650000D01*
X80565000Y97365000D02*
X81880010Y98680010D01*
X112450000Y98650000D02*
X113730000Y97370000D01*
X92944990Y98680010D02*
X94260000Y97365000D01*
X103765000Y97365000D02*
X105050000Y98650000D01*
X18000000Y79600000D02*
X21800000Y79600000D01*
X18000000Y63600000D02*
X7980000Y63600000D01*
X6790000Y62410000D02*
X4250000Y62410000D01*
X50305112Y62800000D02*
X54990000Y62800000D01*
X51500000Y82120000D02*
X53240000Y82120000D01*
X7980000Y63600000D02*
X6790000Y62410000D01*
X18330000Y36970000D02*
X30490000Y36970000D01*
X44220000Y82120000D02*
X51500000Y82120000D01*
X23100000Y80900000D02*
X43000000Y80900000D01*
X43000000Y80900000D02*
X44220000Y82120000D01*
X21800000Y79600000D02*
X23100000Y80900000D01*
X6790000Y44630000D02*
X8470000Y44630000D01*
X11050000Y42050000D02*
X15250000Y42050000D01*
X22400000Y69500000D02*
X23600000Y70700000D01*
X36980000Y69420000D02*
X38000000Y69420000D01*
X70020000Y73800000D02*
X70820000Y74600000D01*
X23600000Y70700000D02*
X35700000Y70700000D01*
X56000000Y70700000D02*
X40400000Y70700000D01*
X56000000Y73800000D02*
X70020000Y73800000D01*
X18600000Y69500000D02*
X22400000Y69500000D01*
X18600000Y42100000D02*
X18550000Y42050000D01*
X40400000Y70700000D02*
X39120000Y69420000D01*
X35700000Y70700000D02*
X36980000Y69420000D01*
X39120000Y69420000D02*
X38000000Y69420000D01*
X70820000Y74600000D02*
X70820000Y75620000D01*
X8470000Y44630000D02*
X11050000Y42050000D01*
X18550000Y42050000D02*
X15250000Y42050000D01*
X59300000Y69600000D02*
X74300000Y69600000D01*
X45050000Y106300000D02*
X23800000Y106300000D01*
X22480000Y104980000D02*
X15250000Y104980000D01*
X45050000Y68100000D02*
X57800000Y68100000D01*
X57800000Y68100000D02*
X59300000Y69600000D01*
X74300000Y69600000D02*
X75900000Y68000000D01*
X23800000Y106300000D02*
X22480000Y104980000D01*
X100500000Y78500000D02*
X84500000Y78500000D01*
X112500000Y96100000D02*
X105000000Y96100000D01*
X121190000Y94830000D02*
X113770000Y94830000D01*
X113770000Y94830000D02*
X112500000Y96100000D01*
X105000000Y96100000D02*
X103700000Y94800000D01*
X84500000Y78500000D02*
X83200000Y77200000D01*
X103700000Y94800000D02*
X100500000Y94800000D01*
X90310500Y77500000D02*
X85700000Y77500000D01*
X98190000Y94825000D02*
X94400000Y94825000D01*
X94400000Y94825000D02*
X92950000Y96275000D01*
X92950000Y96275000D02*
X90250000Y96275000D01*
X81875000Y96225000D02*
X80475000Y94825000D01*
X80475000Y94825000D02*
X75940000Y94825000D01*
X88300000Y96225000D02*
X81875000Y96225000D01*
X90849500Y80300000D02*
X130200000Y80300000D01*
X130200000Y94800000D02*
X130230000Y94830000D01*
X130230000Y94830000D02*
X143565000Y94830000D01*
X103900000Y64380000D02*
X105750000Y62530000D01*
X103900000Y68300000D02*
X103900000Y64380000D01*
X100100000Y72100000D02*
X103900000Y68300000D01*
X65800000Y72100000D02*
X100100000Y72100000D01*
X15210000Y37010000D02*
X15250000Y36970000D01*
X17100000Y36970000D02*
X15250000Y36970000D01*
X32830000Y79580000D02*
X38000000Y79580000D01*
X12200000Y37010000D02*
X15210000Y37010000D01*
X21950000Y77150000D02*
X23100000Y78300000D01*
X17400000Y77150000D02*
X21950000Y77150000D01*
X31550000Y78300000D02*
X32830000Y79580000D01*
X23100000Y78300000D02*
X31550000Y78300000D01*
X51550000Y85250000D02*
X52140000Y84660000D01*
X15250000Y31890000D02*
X19190000Y31890000D01*
X23500000Y85900000D02*
X39200000Y85900000D01*
X19190000Y31890000D02*
X19200000Y31900000D01*
X39850000Y85250000D02*
X51550000Y85250000D01*
X39200000Y85900000D02*
X39850000Y85250000D01*
X22000000Y84400000D02*
X23500000Y85900000D01*
X19200000Y84400000D02*
X22000000Y84400000D01*
X9900000Y38200000D02*
X19200000Y38200000D01*
X4250000Y39550000D02*
X8550000Y39550000D01*
X8550000Y39550000D02*
X9900000Y38200000D01*
X52140000Y84660000D02*
X53240000Y84660000D01*
X46380000Y39100000D02*
X47830000Y39100000D01*
X50830000Y42100000D02*
X53960000Y42100000D01*
X47830000Y39100000D02*
X50830000Y42100000D01*
X73360000Y66950000D02*
X73360000Y68000000D01*
X72010000Y65600000D02*
X73360000Y66950000D01*
X30490000Y34430000D02*
X28930000Y34430000D01*
X28900000Y63600000D02*
X31500000Y63600000D01*
X28930000Y34430000D02*
X28900000Y34400000D01*
X31500000Y63600000D02*
X33500000Y65600000D01*
X33500000Y65600000D02*
X72010000Y65600000D01*
X46630000Y48100000D02*
X46630000Y45100000D01*
X47600000Y49070000D02*
X46630000Y48100000D01*
X47600000Y52700000D02*
X47600000Y49070000D01*
X114400000Y65100000D02*
X114430000Y65070000D01*
X97000000Y120800000D02*
X97600000Y120200000D01*
X147570000Y120220000D02*
X141500000Y120220000D01*
X37050000Y70650000D02*
X39150000Y70650000D01*
X8490000Y105590000D02*
X6790000Y105590000D01*
X49300000Y120800000D02*
X97000000Y120800000D01*
X28900000Y107520000D02*
X23220000Y107520000D01*
X34500000Y73200000D02*
X37050000Y70650000D01*
X97600000Y120200000D02*
X102200000Y120200000D01*
X39150000Y70650000D02*
X40460000Y71960000D01*
X114430000Y65070000D02*
X120990000Y65070000D01*
X28900000Y73200000D02*
X34500000Y73200000D01*
X125430000Y120220000D02*
X125400000Y120250000D01*
X102200000Y120200000D02*
X125350000Y120200000D01*
X125350000Y120200000D02*
X125400000Y120250000D01*
X58000000Y39100000D02*
X68200991Y39100000D01*
X141510000Y112610000D02*
X141500000Y112600000D01*
X23220000Y107520000D02*
X22000000Y106300000D01*
X22000000Y106300000D02*
X9200000Y106300000D01*
X69235000Y35705000D02*
X68130000Y34600000D01*
X48700000Y120200000D02*
X49300000Y120800000D01*
X147600000Y120250000D02*
X147570000Y120220000D01*
X143565000Y112610000D02*
X141510000Y112610000D01*
X28900000Y107520000D02*
X30490000Y107520000D01*
X58000000Y71960000D02*
X53240000Y71960000D01*
X69235000Y38065991D02*
X69235000Y35705000D01*
X9200000Y106300000D02*
X8490000Y105590000D01*
X141500000Y120220000D02*
X125430000Y120220000D01*
X68200991Y39100000D02*
X69235000Y38065991D01*
X53240000Y71960000D02*
X48700000Y71960000D01*
X40460000Y71960000D02*
X48700000Y71960000D01*
X83800000Y18800000D02*
X83800000Y16700000D01*
X82000000Y19410000D02*
X83190000Y19410000D01*
X65200000Y11800000D02*
X64380000Y12620000D01*
X83800000Y16700000D02*
X82700000Y15600000D01*
X83190000Y19410000D02*
X83800000Y18800000D01*
X66960000Y11800000D02*
X65200000Y11800000D01*
X64380000Y12620000D02*
X64380000Y14800000D01*
X73300000Y15600000D02*
X72500000Y14800000D01*
X82700000Y15600000D02*
X73300000Y15600000D01*
X72500000Y14800000D02*
X64380000Y14800000D01*
X87110000Y73200000D02*
X89530000Y75620000D01*
X38000000Y71960000D02*
X39160000Y71960000D01*
X89530000Y75620000D02*
X92070000Y75620000D01*
X39160000Y71960000D02*
X40400000Y73200000D01*
X40400000Y73200000D02*
X87110000Y73200000D01*
X108500000Y101150000D02*
X104950000Y101150000D01*
X93100000Y101125000D02*
X81725000Y101125000D01*
X81725000Y101125000D02*
X80505000Y99905000D01*
X16690000Y52210000D02*
X15250000Y52210000D01*
X50550000Y69450000D02*
X50580000Y69420000D01*
X9220000Y107520000D02*
X15250000Y107520000D01*
X17800000Y51100000D02*
X16690000Y52210000D01*
X8550000Y106850000D02*
X9220000Y107520000D01*
X5510000Y106850000D02*
X8550000Y106850000D01*
X4250000Y105590000D02*
X5510000Y106850000D01*
X113790000Y99910000D02*
X126010000Y99910000D01*
X80505000Y99905000D02*
X72395000Y99905000D01*
X126010000Y99910000D02*
X127300000Y101200000D01*
X108470000Y65070000D02*
X108500000Y65100000D01*
X104950000Y101150000D02*
X103705000Y99905000D01*
X103705000Y99905000D02*
X94320000Y99905000D01*
X71100000Y101200000D02*
X50600000Y101200000D01*
X27150000Y108800000D02*
X23200000Y108800000D01*
X94320000Y99905000D02*
X93100000Y101125000D01*
X142000000Y101200000D02*
X143565000Y99635000D01*
X27150500Y68100000D02*
X39200000Y68100000D01*
X108500000Y101150000D02*
X112550000Y101150000D01*
X39200000Y68100000D02*
X40550000Y69450000D01*
X21920000Y107520000D02*
X15250000Y107520000D01*
X112550000Y101150000D02*
X113790000Y99910000D01*
X23200000Y108800000D02*
X21920000Y107520000D01*
X27150500Y51100000D02*
X17800000Y51100000D01*
X40550000Y69450000D02*
X50550000Y69450000D01*
X72395000Y99905000D02*
X71100000Y101200000D01*
X50580000Y69420000D02*
X53240000Y69420000D01*
X105750000Y65070000D02*
X108470000Y65070000D01*
X127300000Y101200000D02*
X142000000Y101200000D01*
X47700000Y103700000D02*
X46420000Y104980000D01*
X59200000Y103700000D02*
X47700000Y103700000D01*
X46420000Y104980000D02*
X38000000Y104980000D01*
X67585495Y18100000D02*
X65785495Y16300000D01*
X82000000Y16870000D02*
X80770000Y18100000D01*
X62200000Y14800000D02*
X59380000Y14800000D01*
X63700000Y16300000D02*
X62200000Y14800000D01*
X80770000Y18100000D02*
X67585495Y18100000D01*
X65785495Y16300000D02*
X63700000Y16300000D01*
X8500000Y117100000D02*
X9080000Y117680000D01*
X5600000Y117100000D02*
X8500000Y117100000D01*
X9080000Y117680000D02*
X15250000Y117680000D01*
X4250000Y115750000D02*
X5600000Y117100000D01*
X15250000Y115140000D02*
X9140000Y115140000D01*
X9140000Y115140000D02*
X8500000Y114500000D01*
X5540000Y114500000D02*
X4250000Y113210000D01*
X8500000Y114500000D02*
X5540000Y114500000D01*
X64380000Y17800000D02*
X62300000Y17800000D01*
X60300000Y23800000D02*
X56800000Y23800000D01*
X61200000Y22900000D02*
X60300000Y23800000D01*
X62300000Y17800000D02*
X61200000Y18900000D01*
X54200000Y21200000D02*
X56800000Y23800000D01*
X48300000Y21200000D02*
X54200000Y21200000D01*
X61200000Y18900000D02*
X61200000Y22900000D01*
X47060000Y19960000D02*
X48300000Y21200000D01*
X45180000Y19960000D02*
X47060000Y19960000D01*
X32790000Y77040000D02*
X38000000Y77040000D01*
X23250000Y75750000D02*
X31500000Y75750000D01*
X11000000Y43300000D02*
X19800000Y43300000D01*
X5520000Y45900000D02*
X8400000Y45900000D01*
X19800000Y74500000D02*
X22000000Y74500000D01*
X51900000Y75800000D02*
X50660000Y77040000D01*
X50660000Y77040000D02*
X38000000Y77040000D01*
X95120000Y31100000D02*
X61900000Y31100000D01*
X4250000Y44630000D02*
X5520000Y45900000D01*
X61900000Y31100000D02*
X57200000Y35800000D01*
X31500000Y75750000D02*
X32790000Y77040000D01*
X56800000Y75800000D02*
X51900000Y75800000D01*
X8400000Y45900000D02*
X11000000Y43300000D01*
X57200000Y35800000D02*
X57200000Y38900000D01*
X22000000Y74500000D02*
X23250000Y75750000D01*
X9775000Y67200000D02*
X8775000Y66200000D01*
X59500000Y68000000D02*
X58700000Y67200000D01*
X5500000Y66200000D02*
X4250000Y64950000D01*
X8775000Y66200000D02*
X5500000Y66200000D01*
X60660000Y68000000D02*
X59500000Y68000000D01*
X58700000Y67200000D02*
X9775000Y67200000D01*
X10100000Y66400000D02*
X69220000Y66400000D01*
X6790000Y64950000D02*
X8650000Y64950000D01*
X8650000Y64950000D02*
X10100000Y66400000D01*
X69220000Y66400000D02*
X70820000Y68000000D01*
X23770000Y69420000D02*
X30490000Y69420000D01*
X6790000Y67490000D02*
X8690000Y67490000D01*
X8690000Y67490000D02*
X9300000Y68100000D01*
X9300000Y68100000D02*
X22450000Y68100000D01*
X22450000Y68100000D02*
X23770000Y69420000D01*
X23260000Y71960000D02*
X30490000Y71960000D01*
X8530000Y70030000D02*
X9200000Y70700000D01*
X9200000Y70700000D02*
X22000000Y70700000D01*
X6790000Y70030000D02*
X8530000Y70030000D01*
X22000000Y70700000D02*
X23260000Y71960000D01*
X15250000Y112600000D02*
X9043198Y112600000D01*
X8368198Y111925000D02*
X5505000Y111925000D01*
X5505000Y111925000D02*
X4250000Y110670000D01*
X9043198Y112600000D02*
X8368198Y111925000D01*
X23300000Y74500000D02*
X30490000Y74500000D01*
X9100000Y73200000D02*
X22000000Y73200000D01*
X6790000Y72570000D02*
X8470000Y72570000D01*
X8470000Y72570000D02*
X9100000Y73200000D01*
X22000000Y73200000D02*
X23300000Y74500000D01*
X9360000Y110060000D02*
X8700000Y109400000D01*
X15250000Y110060000D02*
X9360000Y110060000D01*
X5520000Y109400000D02*
X4250000Y108130000D01*
X8700000Y109400000D02*
X5520000Y109400000D01*
X23040000Y77040000D02*
X30490000Y77040000D01*
X6790000Y75110000D02*
X8510000Y75110000D01*
X21915000Y75915000D02*
X23040000Y77040000D01*
X8510000Y75110000D02*
X9315000Y75915000D01*
X9315000Y75915000D02*
X21915000Y75915000D01*
X6790000Y77650000D02*
X8450000Y77650000D01*
X9100000Y78300000D02*
X21950000Y78300000D01*
X23230000Y79580000D02*
X30490000Y79580000D01*
X21950000Y78300000D02*
X23230000Y79580000D01*
X8450000Y77650000D02*
X9100000Y78300000D01*
X5510000Y94150000D02*
X8550000Y94150000D01*
X8550000Y94150000D02*
X9220000Y94820000D01*
X4250000Y92890000D02*
X5510000Y94150000D01*
X9220000Y94820000D02*
X15250000Y94820000D01*
X9180000Y92280000D02*
X15250000Y92280000D01*
X5500000Y91600000D02*
X8500000Y91600000D01*
X8500000Y91600000D02*
X9180000Y92280000D01*
X4250000Y90350000D02*
X5500000Y91600000D01*
X9140000Y89740000D02*
X8500000Y89100000D01*
X8500000Y89100000D02*
X5540000Y89100000D01*
X5540000Y89100000D02*
X4250000Y87810000D01*
X15250000Y89740000D02*
X9140000Y89740000D01*
X4250000Y85270000D02*
X5505000Y86525000D01*
X5505000Y86525000D02*
X8538198Y86525000D01*
X9213198Y87200000D02*
X15250000Y87200000D01*
X8538198Y86525000D02*
X9213198Y87200000D01*
X4250000Y82730000D02*
X5520000Y84000000D01*
X5520000Y84000000D02*
X8700000Y84000000D01*
X8700000Y84000000D02*
X9360000Y84660000D01*
X9360000Y84660000D02*
X15250000Y84660000D01*
X8400000Y81400000D02*
X9120000Y82120000D01*
X4250000Y80190000D02*
X5460000Y81400000D01*
X5460000Y81400000D02*
X8400000Y81400000D01*
X9120000Y82120000D02*
X15250000Y82120000D01*
X5500000Y78900000D02*
X8400000Y78900000D01*
X8400000Y78900000D02*
X9080000Y79580000D01*
X4250000Y77650000D02*
X5500000Y78900000D01*
X9080000Y79580000D02*
X15250000Y79580000D01*
X8568198Y76400000D02*
X5540000Y76400000D01*
X15250000Y77040000D02*
X9208198Y77040000D01*
X9208198Y77040000D02*
X8568198Y76400000D01*
X5540000Y76400000D02*
X4250000Y75110000D01*
X9250000Y108850000D02*
X21850000Y108850000D01*
X21850000Y108850000D02*
X23060000Y110060000D01*
X23060000Y110060000D02*
X30490000Y110060000D01*
X8530000Y108130000D02*
X9250000Y108850000D01*
X6790000Y108130000D02*
X8530000Y108130000D01*
X9220851Y74500000D02*
X8545851Y73825000D01*
X8545851Y73825000D02*
X5505000Y73825000D01*
X15250000Y74500000D02*
X9220851Y74500000D01*
X5505000Y73825000D02*
X4250000Y72570000D01*
X9200000Y111300000D02*
X21900000Y111300000D01*
X6790000Y110670000D02*
X8570000Y110670000D01*
X8570000Y110670000D02*
X9200000Y111300000D01*
X21900000Y111300000D02*
X23200000Y112600000D01*
X23200000Y112600000D02*
X30490000Y112600000D01*
X4250000Y70030000D02*
X5495000Y71275000D01*
X9328198Y71960000D02*
X15250000Y71960000D01*
X5495000Y71275000D02*
X8643198Y71275000D01*
X8643198Y71275000D02*
X9328198Y71960000D01*
X21915000Y114015000D02*
X9265000Y114015000D01*
X9265000Y114015000D02*
X8460000Y113210000D01*
X30490000Y115140000D02*
X23040000Y115140000D01*
X23040000Y115140000D02*
X21915000Y114015000D01*
X8460000Y113210000D02*
X6790000Y113210000D01*
X15250000Y69420000D02*
X9320000Y69420000D01*
X8625000Y68725000D02*
X5485000Y68725000D01*
X9320000Y69420000D02*
X8625000Y68725000D01*
X5485000Y68725000D02*
X4250000Y67490000D01*
X23280000Y117680000D02*
X30490000Y117680000D01*
X8450000Y115750000D02*
X9100000Y116400000D01*
X22000000Y116400000D02*
X23280000Y117680000D01*
X6790000Y115750000D02*
X8450000Y115750000D01*
X9100000Y116400000D02*
X22000000Y116400000D01*
X16800000Y53500000D02*
X10100000Y53500000D01*
X8810000Y54790000D02*
X6790000Y54790000D01*
X10100000Y53500000D02*
X8810000Y54790000D01*
X4250000Y54790000D02*
X6790000Y54790000D01*
X30490000Y52210000D02*
X18090000Y52210000D01*
X18090000Y52210000D02*
X16800000Y53500000D01*
X15250000Y44590000D02*
X11010000Y44590000D01*
X8430000Y47170000D02*
X6790000Y47170000D01*
X11010000Y44590000D02*
X8430000Y47170000D01*
X30490000Y49670000D02*
X17930000Y49670000D01*
X5500000Y53500000D02*
X4250000Y52250000D01*
X8600000Y53500000D02*
X5500000Y53500000D01*
X17930000Y49670000D02*
X16700000Y50900000D01*
X11200000Y50900000D02*
X8600000Y53500000D01*
X16700000Y50900000D02*
X11200000Y50900000D01*
X10970000Y47130000D02*
X15250000Y47130000D01*
X6790000Y49710000D02*
X8390000Y49710000D01*
X8390000Y49710000D02*
X10970000Y47130000D01*
X5540000Y51000000D02*
X8400000Y51000000D01*
X4250000Y49710000D02*
X5540000Y51000000D01*
X8400000Y51000000D02*
X11000000Y48400000D01*
X11000000Y48400000D02*
X29220000Y48400000D01*
X29220000Y48400000D02*
X30490000Y47130000D01*
X11030000Y49670000D02*
X15250000Y49670000D01*
X8450000Y52250000D02*
X11030000Y49670000D01*
X6790000Y52250000D02*
X8450000Y52250000D01*
X29180000Y45900000D02*
X30490000Y44590000D01*
X5480000Y48400000D02*
X8400000Y48400000D01*
X10900000Y45900000D02*
X29180000Y45900000D01*
X8400000Y48400000D02*
X10900000Y45900000D01*
X4250000Y47170000D02*
X5480000Y48400000D01*
X9800000Y40800000D02*
X8510000Y42090000D01*
X8510000Y42090000D02*
X4250000Y42090000D01*
X19900000Y31900000D02*
X19910000Y31890000D01*
X19910000Y31890000D02*
X30490000Y31890000D01*
X19900000Y40800000D02*
X9800000Y40800000D01*
X71460000Y45700000D02*
X68160000Y42400000D01*
X65500000Y45400000D02*
X67910000Y42990000D01*
X73400000Y34600000D02*
X75940000Y34600000D01*
X67910000Y42990000D02*
X67910000Y42400000D01*
X73210000Y38790000D02*
X73210000Y34790000D01*
X73210000Y34790000D02*
X73400000Y34600000D01*
X67910000Y42400000D02*
X69600000Y42400000D01*
X68160000Y42400000D02*
X67910000Y42400000D01*
X69600000Y42400000D02*
X73210000Y38790000D01*
X68205000Y42695000D02*
X68455000Y42695000D01*
X46730000Y33000000D02*
X49730000Y36000000D01*
X44970000Y33000000D02*
X46730000Y33000000D01*
X49730000Y36000000D02*
X52590000Y36000000D01*
X60700000Y26980000D02*
X62280000Y25400000D01*
X69280000Y25400000D02*
X70860000Y26980000D01*
X50030000Y33000000D02*
X52590000Y33000000D01*
X44970000Y30000000D02*
X47030000Y30000000D01*
X47030000Y30000000D02*
X50030000Y33000000D01*
X62280000Y25400000D02*
X69280000Y25400000D01*
X80690000Y47410000D02*
X81700000Y46400000D01*
X74660000Y62200000D02*
X78000000Y62200000D01*
X78500000Y61700000D02*
X78500000Y53090000D01*
X95790000Y46400000D02*
X97640000Y48250000D01*
X73160000Y60700000D02*
X74660000Y62200000D01*
X81700000Y46400000D02*
X95790000Y46400000D01*
X78500000Y53090000D02*
X80690000Y50900000D01*
X78000000Y62200000D02*
X78500000Y61700000D01*
X80690000Y50900000D02*
X80690000Y47410000D01*
X74380000Y9250000D02*
X70650000Y9250000D01*
X70650000Y9250000D02*
X70100000Y8700000D01*
X70100000Y8700000D02*
X64380000Y8700000D01*
X60880000Y7200000D02*
X69100000Y7200000D01*
X56800000Y5700000D02*
X59380000Y8280000D01*
X69100000Y7200000D02*
X69590000Y6710000D01*
X59380000Y8280000D02*
X59380000Y8700000D01*
X69590000Y6710000D02*
X74380000Y6710000D01*
X59380000Y8700000D02*
X60880000Y7200000D01*
X49010000Y8700000D02*
X51810000Y5900000D01*
X42920000Y8700000D02*
X49010000Y8700000D01*
X64630000Y47800000D02*
X66820000Y47800000D01*
X66820000Y47800000D02*
X68920000Y45700000D01*
X63050000Y49380000D02*
X64630000Y47800000D01*
X71300000Y47700000D02*
X70860000Y48140000D01*
X75940000Y54460000D02*
X75940000Y57000000D01*
X74000000Y45700000D02*
X74000000Y47200000D01*
X73500000Y47700000D02*
X71300000Y47700000D01*
X70860000Y48140000D02*
X70860000Y49380000D01*
X70860000Y49380000D02*
X75940000Y54460000D01*
X74000000Y47200000D02*
X73500000Y47700000D01*
X70620000Y60700000D02*
X63500000Y60700000D01*
X63500000Y60700000D02*
X61900000Y59100000D01*
X61900000Y59100000D02*
X61900000Y50770000D01*
X61900000Y50770000D02*
X60510000Y49380000D01*
X48630000Y42100000D02*
X51630000Y45100000D01*
X51630000Y48100000D02*
X51630000Y45100000D01*
X43800000Y42100000D02*
X48630000Y42100000D01*
X75940000Y102445000D02*
X79395000Y102445000D01*
X79395000Y102445000D02*
X79400000Y102450000D01*
X79355000Y110065000D02*
X79400000Y110020000D01*
X75940000Y110065000D02*
X79355000Y110065000D01*
X55440000Y117640000D02*
X55400000Y117600000D01*
X79400000Y117640000D02*
X55440000Y117640000D01*
X38000000Y112600000D02*
X44700000Y112600000D01*
X102200000Y117660000D02*
X101940000Y117400000D01*
X101940000Y117400000D02*
X79340000Y117400000D01*
X102200000Y117660000D02*
X102250000Y117710000D01*
X46000000Y111300000D02*
X55400000Y111300000D01*
X102250000Y117710000D02*
X147600000Y117710000D01*
X79340000Y117400000D02*
X79100000Y117640000D01*
X44700000Y112600000D02*
X46000000Y111300000D01*
X79100000Y115100000D02*
X79500000Y115100000D01*
X125400000Y115170000D02*
X123620000Y116950000D01*
X123620000Y116950000D02*
X104030000Y116950000D01*
X145820000Y116950000D02*
X127180000Y116950000D01*
X79500000Y115100000D02*
X81100000Y116700000D01*
X38000000Y117680000D02*
X39230000Y116450000D01*
X100620000Y116700000D02*
X102200000Y115120000D01*
X81100000Y116700000D02*
X100620000Y116700000D01*
X147600000Y115170000D02*
X145820000Y116950000D01*
X127180000Y116950000D02*
X125400000Y115170000D01*
X39230000Y116450000D02*
X78050000Y116450000D01*
X78050000Y116450000D02*
X79400000Y115100000D01*
X104030000Y116950000D02*
X102200000Y115120000D01*
X154550000Y92250000D02*
X152010000Y92250000D01*
X148000000Y92240000D02*
X152000000Y92240000D01*
X152000000Y92240000D02*
X152010000Y92250000D01*
X102175000Y110065000D02*
X102200000Y110040000D01*
X98190000Y110065000D02*
X102175000Y110065000D01*
X102145000Y102445000D02*
X102200000Y102500000D01*
X98190000Y102445000D02*
X102145000Y102445000D01*
X125380000Y110070000D02*
X125400000Y110090000D01*
X121190000Y110070000D02*
X125380000Y110070000D01*
X125375000Y102625000D02*
X121365000Y102625000D01*
X125400000Y102650000D02*
X125375000Y102625000D01*
X121365000Y102625000D02*
X121190000Y102450000D01*
X143565000Y110070000D02*
X147580000Y110070000D01*
X147580000Y110070000D02*
X147600000Y110090000D01*
X146550000Y102450000D02*
X147600000Y103500000D01*
X147600000Y103500000D02*
X147600000Y107550000D01*
X143565000Y102450000D02*
X146550000Y102450000D01*
X139340000Y62440000D02*
X146350000Y69450000D01*
X113800000Y63800000D02*
X137540000Y63800000D01*
X137540000Y63800000D02*
X139340000Y62000000D01*
X149530000Y69450000D02*
X152010000Y71930000D01*
X113800000Y75230000D02*
X120990000Y75230000D01*
X152010000Y71930000D02*
X154550000Y71930000D01*
X139340000Y62000000D02*
X139340000Y62440000D01*
X146350000Y69450000D02*
X149530000Y69450000D01*
X137900000Y68000000D02*
X139350000Y68000000D01*
X143300000Y72600000D02*
X146300000Y75600000D01*
X119200000Y68900000D02*
X137000000Y68900000D01*
X154550000Y77010000D02*
X152010000Y77010000D01*
X143300000Y71950000D02*
X143300000Y72600000D01*
X137000000Y68900000D02*
X137900000Y68000000D01*
X150600000Y75600000D02*
X152010000Y77010000D01*
X146300000Y75600000D02*
X150600000Y75600000D01*
X139350000Y68000000D02*
X143300000Y71950000D01*
X147430000Y82090000D02*
X139340000Y74000000D01*
X138300000Y74000000D02*
X139340000Y74000000D01*
X154550000Y82090000D02*
X152010000Y82090000D01*
X137000000Y72700000D02*
X138300000Y74000000D01*
X152010000Y82090000D02*
X147430000Y82090000D01*
X122700000Y72700000D02*
X137000000Y72700000D01*
X145800000Y81950000D02*
X145800000Y82900000D01*
X139340000Y77050000D02*
X139340000Y78040000D01*
X140500000Y79200000D02*
X143050000Y79200000D01*
X143050000Y79200000D02*
X145800000Y81950000D01*
X139340000Y78040000D02*
X140500000Y79200000D01*
X109700000Y70150000D02*
X105750000Y70150000D01*
X145800000Y82900000D02*
X147530000Y84630000D01*
X147530000Y84630000D02*
X152010000Y84630000D01*
X109750000Y77050000D02*
X139340000Y77050000D01*
X154550000Y84630000D02*
X152010000Y84630000D01*
X109700000Y77100000D02*
X109750000Y77050000D01*
X118510000Y72690000D02*
X105750000Y72690000D01*
X139350000Y70650000D02*
X139350000Y71000000D01*
X135900000Y71400000D02*
X119800000Y71400000D01*
X152010000Y79550000D02*
X146650000Y79550000D01*
X139350000Y71000000D02*
X136300000Y71000000D01*
X141100000Y72750000D02*
X139350000Y71000000D01*
X119800000Y71400000D02*
X118510000Y72690000D01*
X141100000Y74000000D02*
X141100000Y72750000D01*
X154550000Y79550000D02*
X152010000Y79550000D01*
X146650000Y79550000D02*
X141100000Y74000000D01*
X136300000Y71000000D02*
X135900000Y71400000D01*
X152010000Y89710000D02*
X148010000Y89710000D01*
X148010000Y89710000D02*
X148000000Y89700000D01*
X154550000Y89710000D02*
X152010000Y89710000D01*
X152010000Y87170000D02*
X148010000Y87170000D01*
X148010000Y87170000D02*
X148000000Y87160000D01*
X154550000Y87170000D02*
X152010000Y87170000D01*
X45180000Y17420000D02*
X46680000Y17420000D01*
X50400000Y11700000D02*
X53080000Y11700000D01*
X46680000Y17420000D02*
X48900000Y15200000D01*
X48900000Y15200000D02*
X48900000Y13200000D01*
X48900000Y13200000D02*
X50400000Y11700000D01*
X128180000Y54260000D02*
X129420000Y55500000D01*
X145220000Y55500000D02*
X146920000Y57200000D01*
X129420000Y55500000D02*
X145220000Y55500000D01*
X147910000Y57200000D02*
X150960000Y54150000D01*
X150960000Y54150000D02*
X152010000Y54150000D01*
X154550000Y54150000D02*
X152010000Y54150000D01*
X127100000Y54260000D02*
X128180000Y54260000D01*
X146920000Y57200000D02*
X147910000Y57200000D01*
X146920000Y54200000D02*
X145420000Y52700000D01*
X152010000Y51610000D02*
X150690000Y51610000D01*
X148100000Y54200000D02*
X146920000Y54200000D01*
X150690000Y51610000D02*
X148100000Y54200000D01*
X145420000Y52700000D02*
X137500000Y52700000D01*
X137500000Y52700000D02*
X136520000Y51720000D01*
X154550000Y51610000D02*
X152010000Y51610000D01*
X136520000Y51720000D02*
X134720000Y51720000D01*
X137000000Y50400000D02*
X137700000Y49700000D01*
X127100000Y49180000D02*
X128180000Y49180000D01*
X129400000Y50400000D02*
X137000000Y50400000D01*
X145420000Y49700000D02*
X146920000Y51200000D01*
X150630000Y49070000D02*
X148500000Y51200000D01*
X154550000Y49070000D02*
X153347919Y49070000D01*
X152010000Y49070000D02*
X150630000Y49070000D01*
X137700000Y49700000D02*
X145420000Y49700000D01*
X128180000Y49180000D02*
X129400000Y50400000D01*
X152010000Y49590000D02*
X152010000Y49070000D01*
X148500000Y51200000D02*
X146920000Y51200000D01*
X153347919Y49070000D02*
X152010000Y49070000D01*
X154550000Y46530000D02*
X152010000Y46530000D01*
X148700000Y48200000D02*
X150300000Y46600000D01*
X145350000Y46640000D02*
X146910000Y48200000D01*
X154550000Y46530000D02*
X153347919Y46530000D01*
X150300000Y46600000D02*
X151940000Y46600000D01*
X146910000Y48200000D02*
X148700000Y48200000D01*
X153347919Y46530000D02*
X152010000Y46530000D01*
X134720000Y46640000D02*
X145350000Y46640000D01*
X151940000Y46600000D02*
X152010000Y46530000D01*
X150010000Y43990000D02*
X152010000Y43990000D01*
X128400000Y44100000D02*
X129700000Y45400000D01*
X138000000Y43700000D02*
X145410000Y43700000D01*
X127100000Y44100000D02*
X128400000Y44100000D01*
X129700000Y45400000D02*
X136300000Y45400000D01*
X148800000Y45200000D02*
X150010000Y43990000D01*
X146910000Y45200000D02*
X148800000Y45200000D01*
X145410000Y43700000D02*
X146910000Y45200000D01*
X136300000Y45400000D02*
X138000000Y43700000D01*
X154550000Y43990000D02*
X152060000Y43990000D01*
X146910000Y42200000D02*
X148700000Y42200000D01*
X145410000Y40700000D02*
X146910000Y42200000D01*
X149450000Y41450000D02*
X154550000Y41450000D01*
X136440000Y41560000D02*
X137300000Y40700000D01*
X148700000Y42200000D02*
X149450000Y41450000D01*
X137300000Y40700000D02*
X145410000Y40700000D01*
X134720000Y41560000D02*
X136440000Y41560000D01*
X149160000Y39200000D02*
X149450000Y38910000D01*
X146910000Y39200000D02*
X149160000Y39200000D01*
X128242500Y35585000D02*
X129457500Y36800000D01*
X136500000Y36800000D02*
X137500000Y37800000D01*
X127100000Y35585000D02*
X128242500Y35585000D01*
X149450000Y38910000D02*
X154550000Y38910000D01*
X145510000Y37800000D02*
X146910000Y39200000D01*
X137500000Y37800000D02*
X145510000Y37800000D01*
X129457500Y36800000D02*
X136500000Y36800000D01*
X151840000Y36200000D02*
X152010000Y36370000D01*
X136475000Y34800000D02*
X145510000Y34800000D01*
X145510000Y34800000D02*
X146910000Y36200000D01*
X134720000Y33045000D02*
X136475000Y34800000D01*
X152010000Y36370000D02*
X154550000Y36370000D01*
X146910000Y36200000D02*
X151840000Y36200000D01*
X151730000Y33830000D02*
X152010000Y33830000D01*
X154550000Y33830000D02*
X152010000Y33830000D01*
X145410000Y31700000D02*
X146910000Y33200000D01*
X151100000Y33200000D02*
X151730000Y33830000D01*
X135800000Y31800000D02*
X135900000Y31700000D01*
X135900000Y31700000D02*
X145410000Y31700000D01*
X128405000Y30505000D02*
X129700000Y31800000D01*
X146910000Y33200000D02*
X151100000Y33200000D01*
X129700000Y31800000D02*
X135800000Y31800000D01*
X127100000Y30505000D02*
X128405000Y30505000D01*
X122500000Y47120000D02*
X122500000Y46750000D01*
X116200000Y26970000D02*
X105750000Y26970000D01*
X127100000Y51720000D02*
X122500000Y47120000D01*
X121750000Y46000000D02*
X116200000Y46000000D01*
X122500000Y46750000D02*
X121750000Y46000000D01*
X116790000Y29510000D02*
X116800000Y29500000D01*
X126300000Y53000000D02*
X128300000Y53000000D01*
X121900000Y48600000D02*
X126300000Y53000000D01*
X116800000Y48600000D02*
X121900000Y48600000D01*
X105750000Y29510000D02*
X116790000Y29510000D01*
X129560000Y54260000D02*
X134720000Y54260000D01*
X128300000Y53000000D02*
X129560000Y54260000D01*
X125800000Y55600000D02*
X127000000Y56800000D01*
X121900000Y51100000D02*
X125800000Y55000000D01*
X125800000Y55000000D02*
X125800000Y55600000D01*
X127000000Y56800000D02*
X127100000Y56800000D01*
X117400000Y51100000D02*
X121900000Y51100000D01*
X117400000Y32050000D02*
X105750000Y32050000D01*
X126400000Y47900000D02*
X128170000Y47900000D01*
X128170000Y47900000D02*
X129450000Y49180000D01*
X129450000Y49180000D02*
X134720000Y49180000D01*
X119400000Y43500000D02*
X122000000Y43500000D01*
X120990000Y37130000D02*
X119430000Y37130000D01*
X122000000Y43500000D02*
X126400000Y47900000D01*
X119430000Y37130000D02*
X119400000Y37100000D01*
X126010000Y34590000D02*
X120990000Y34590000D01*
X128200000Y34300000D02*
X126300000Y34300000D01*
X129485000Y35585000D02*
X128200000Y34300000D01*
X126300000Y34300000D02*
X126010000Y34590000D01*
X134720000Y35585000D02*
X129485000Y35585000D01*
X119400000Y32100000D02*
X119450000Y32050000D01*
X119450000Y32050000D02*
X120990000Y32050000D01*
X124875000Y35900000D02*
X127100000Y38125000D01*
X119400000Y35900000D02*
X124875000Y35900000D01*
X129700000Y44100000D02*
X134720000Y44100000D01*
X121812500Y38400000D02*
X126112500Y42700000D01*
X128300000Y42700000D02*
X129700000Y44100000D01*
X118850500Y29500000D02*
X118860500Y29510000D01*
X118860500Y29510000D02*
X120990000Y29510000D01*
X126112500Y42700000D02*
X128300000Y42700000D01*
X118850500Y38400000D02*
X121812500Y38400000D01*
X118130000Y26970000D02*
X120990000Y26970000D01*
X118100000Y27000000D02*
X118130000Y26970000D01*
X121545000Y41085000D02*
X118115000Y41085000D01*
X118115000Y41085000D02*
X118100000Y41100000D01*
X127100000Y46640000D02*
X121545000Y41085000D01*
X152010000Y61770000D02*
X154550000Y61770000D01*
X105850500Y34600000D02*
X105840500Y34590000D01*
X114400000Y34600000D02*
X105850500Y34600000D01*
X121900000Y53600000D02*
X125200000Y56900000D01*
X126200000Y58500000D02*
X148740000Y58500000D01*
X125200000Y56900000D02*
X125200000Y57500000D01*
X105840500Y34590000D02*
X105750000Y34590000D01*
X125200000Y57500000D02*
X126200000Y58500000D01*
X114400000Y53600000D02*
X121900000Y53600000D01*
X148740000Y58500000D02*
X152010000Y61770000D01*
X113770000Y37130000D02*
X105750000Y37130000D01*
X122000000Y56200000D02*
X125000000Y59200000D01*
X152010000Y64310000D02*
X154550000Y64310000D01*
X125000000Y59200000D02*
X146900000Y59200000D01*
X113900000Y56200000D02*
X122000000Y56200000D01*
X113800000Y56100000D02*
X113900000Y56200000D01*
X146900000Y59200000D02*
X152010000Y64310000D01*
X113800000Y37100000D02*
X113770000Y37130000D01*
X123300000Y59900000D02*
X142500000Y59900000D01*
X113200000Y39670000D02*
X105750000Y39670000D01*
X154550000Y66850000D02*
X152010000Y66850000D01*
X113200000Y58700000D02*
X122100000Y58700000D01*
X146100000Y63500000D02*
X148660000Y63500000D01*
X122100000Y58700000D02*
X123300000Y59900000D01*
X142500000Y59900000D02*
X146100000Y63500000D01*
X148660000Y63500000D02*
X152010000Y66850000D01*
X122000000Y61200000D02*
X122600000Y60600000D01*
X112600000Y42200000D02*
X112590000Y42210000D01*
X140400000Y60600000D02*
X146300000Y66500000D01*
X146300000Y66500000D02*
X149120000Y66500000D01*
X152010000Y69390000D02*
X154550000Y69390000D01*
X149120000Y66500000D02*
X152010000Y69390000D01*
X112600000Y61200000D02*
X122000000Y61200000D01*
X122600000Y60600000D02*
X140400000Y60600000D01*
X112590000Y42210000D02*
X105750000Y42210000D01*
X109100000Y75200000D02*
X109070000Y75230000D01*
X139340000Y65000000D02*
X139340000Y65540000D01*
X154550000Y74470000D02*
X152010000Y74470000D01*
X150040000Y72500000D02*
X152010000Y74470000D01*
X139340000Y65540000D02*
X146300000Y72500000D01*
X146300000Y72500000D02*
X150040000Y72500000D01*
X109070000Y75230000D02*
X105750000Y75230000D01*
X123400000Y65000000D02*
X139340000Y65000000D01*
X109100000Y66300000D02*
X122100000Y66300000D01*
X122100000Y66300000D02*
X123400000Y65000000D01*
X152010000Y31290000D02*
X150920000Y30200000D01*
X137400000Y28800000D02*
X145510000Y28800000D01*
X150920000Y30200000D02*
X146910000Y30200000D01*
X134720000Y27965000D02*
X136565000Y27965000D01*
X136565000Y27965000D02*
X137400000Y28800000D01*
X154550000Y31290000D02*
X152010000Y31290000D01*
X145510000Y28800000D02*
X146910000Y30200000D01*
X9030000Y17130000D02*
X9400000Y17500000D01*
X7290000Y17130000D02*
X9030000Y17130000D01*
X9400000Y24300000D02*
X10100000Y25000000D01*
X9400000Y17500000D02*
X9400000Y24300000D01*
X10100000Y25000000D02*
X11720000Y25000000D01*
X152010000Y28750000D02*
X154550000Y28750000D01*
X127100000Y25425000D02*
X128425000Y25425000D01*
X135500000Y26700000D02*
X136400000Y25800000D01*
X128425000Y25425000D02*
X129700000Y26700000D01*
X129700000Y26700000D02*
X135500000Y26700000D01*
X148400000Y27200000D02*
X149950000Y28750000D01*
X146910000Y27200000D02*
X148400000Y27200000D01*
X136400000Y25800000D02*
X145510000Y25800000D01*
X149950000Y28750000D02*
X152010000Y28750000D01*
X145510000Y25800000D02*
X146910000Y27200000D01*
X109800000Y28200000D02*
X104550000Y28200000D01*
X104550000Y28200000D02*
X104050000Y28700000D01*
X109800000Y67600000D02*
X109810000Y67610000D01*
X109810000Y67610000D02*
X120990000Y67610000D01*
X104050000Y28700000D02*
X80249000Y28700000D01*
X33700000Y27500000D02*
X30500000Y24300000D01*
X30500000Y24300000D02*
X30500000Y19725000D01*
X31565000Y9565000D02*
X32700000Y10700000D01*
X95800000Y30100000D02*
X56400000Y30100000D01*
X32700000Y17525000D02*
X30500000Y19725000D01*
X110274500Y44750000D02*
X110324500Y44800000D01*
X53800000Y27500000D02*
X33700000Y27500000D01*
X105750000Y44750000D02*
X110274500Y44750000D01*
X30500000Y9565000D02*
X31565000Y9565000D01*
X96500000Y30800000D02*
X95800000Y30100000D01*
X110324500Y30800000D02*
X96500000Y30800000D01*
X32700000Y10700000D02*
X32700000Y17525000D01*
X56400000Y30100000D02*
X53800000Y27500000D01*
X150000000Y24200000D02*
X152010000Y26210000D01*
X134905000Y22700000D02*
X145410000Y22700000D01*
X154550000Y26210000D02*
X152010000Y26210000D01*
X145410000Y22700000D02*
X146910000Y24200000D01*
X134720000Y22885000D02*
X134905000Y22700000D01*
X146910000Y24200000D02*
X150000000Y24200000D01*
X129500000Y17900000D02*
X136400000Y17900000D01*
X136400000Y17900000D02*
X138200000Y19700000D01*
X154550000Y23670000D02*
X152010000Y23670000D01*
X146910000Y21200000D02*
X149540000Y21200000D01*
X128300000Y16700000D02*
X129500000Y17900000D01*
X127200000Y16700000D02*
X128300000Y16700000D01*
X138200000Y19700000D02*
X145410000Y19700000D01*
X145410000Y19700000D02*
X146910000Y21200000D01*
X149540000Y21200000D02*
X152010000Y23670000D01*
X25905000Y16700000D02*
X21880000Y16700000D01*
X30500000Y12105000D02*
X25905000Y16700000D01*
X14300000Y19800000D02*
X14300000Y19500000D01*
X17100000Y16700000D02*
X21880000Y16700000D01*
X14300000Y19500000D02*
X17100000Y16700000D01*
X12620000Y22000000D02*
X17100000Y22000000D01*
X25345000Y19800000D02*
X30500000Y14645000D01*
X17100000Y22000000D02*
X19300000Y19800000D01*
X19300000Y19800000D02*
X25345000Y19800000D01*
X11720000Y22900000D02*
X12620000Y22000000D01*
X17900000Y13300000D02*
X15900000Y15300000D01*
X19900000Y13300000D02*
X17900000Y13300000D01*
X22255000Y7025000D02*
X21100000Y8180000D01*
X15900000Y15300000D02*
X13120000Y15300000D01*
X21100000Y12100000D02*
X19900000Y13300000D01*
X13120000Y15300000D02*
X11720000Y16700000D01*
X30500000Y7025000D02*
X22255000Y7025000D01*
X21100000Y8180000D02*
X21100000Y12100000D01*
X24785000Y22900000D02*
X21880000Y22900000D01*
X30500000Y17185000D02*
X24785000Y22900000D01*
X137460000Y16800000D02*
X145510000Y16800000D01*
X146910000Y18200000D02*
X149080000Y18200000D01*
X145510000Y16800000D02*
X146910000Y18200000D01*
X149080000Y18200000D02*
X152010000Y21130000D01*
X134820000Y14160000D02*
X137460000Y16800000D01*
X152010000Y21130000D02*
X154550000Y21130000D01*
X138500000Y13700000D02*
X143900000Y13700000D01*
X145410000Y13700000D02*
X146910000Y15200000D01*
X129700000Y12900000D02*
X137700000Y12900000D01*
X128420000Y11620000D02*
X129700000Y12900000D01*
X137700000Y12900000D02*
X138500000Y13700000D01*
X148620000Y15200000D02*
X152010000Y18590000D01*
X146910000Y15200000D02*
X148620000Y15200000D01*
X127200000Y11620000D02*
X128420000Y11620000D01*
X154550000Y18590000D02*
X151540000Y18590000D01*
X143900000Y13700000D02*
X145410000Y13700000D01*
X12520000Y6600000D02*
X12520000Y4000000D01*
X13100000Y12100000D02*
X13100000Y7180000D01*
X13100000Y7180000D02*
X12520000Y6600000D01*
X50900000Y3100000D02*
X42920000Y3100000D01*
X59380000Y17800000D02*
X57800000Y17800000D01*
X59380000Y20800000D02*
X59380000Y17800000D01*
X55200000Y7400000D02*
X50900000Y3100000D01*
X55200000Y15200000D02*
X55200000Y7400000D01*
X57800000Y17800000D02*
X55200000Y15200000D01*
X39345000Y14645000D02*
X43400000Y18700000D01*
X64380000Y21220000D02*
X64380000Y20800000D01*
X38120000Y14645000D02*
X39345000Y14645000D01*
X66960000Y23800000D02*
X64380000Y21220000D01*
X43400000Y18700000D02*
X51520000Y18700000D01*
X51520000Y18700000D02*
X52800000Y17420000D01*
X153347919Y16050000D02*
X152010000Y16050000D01*
X152000000Y16050000D02*
X152010000Y16050000D01*
X148160000Y12200000D02*
X152010000Y16050000D01*
X154550000Y16050000D02*
X153347919Y16050000D01*
X145410000Y10700000D02*
X146910000Y12200000D01*
X136440000Y10700000D02*
X145410000Y10700000D01*
X134820000Y9080000D02*
X136440000Y10700000D01*
X146910000Y12200000D02*
X148160000Y12200000D01*
X79724500Y31800000D02*
X66040000Y31800000D01*
X66040000Y31800000D02*
X63240000Y34600000D01*
X9310000Y14590000D02*
X10600000Y13300000D01*
X7290000Y14590000D02*
X9310000Y14590000D01*
X10600000Y13300000D02*
X10600000Y12100000D01*
X4750000Y14590000D02*
X7290000Y14590000D01*
X55800000Y1700000D02*
X11100000Y1700000D01*
X9000000Y10340000D02*
X7290000Y12050000D01*
X56800000Y2700000D02*
X55800000Y1700000D01*
X4750000Y12050000D02*
X7290000Y12050000D01*
X11100000Y1700000D02*
X9000000Y3800000D01*
X9000000Y3800000D02*
X9000000Y10340000D01*
X107390000Y47290000D02*
X107400000Y47300000D01*
X117200000Y26000000D02*
X107400000Y26000000D01*
X105750000Y47290000D02*
X107390000Y47290000D01*
X120900000Y19360000D02*
X117200000Y19360000D01*
X110600000Y24600000D02*
X107950000Y24600000D01*
X117700000Y16820000D02*
X120900000Y16820000D01*
X107950000Y49800000D02*
X107920000Y49830000D01*
X107920000Y49830000D02*
X105750000Y49830000D01*
X117725000Y25400000D02*
X111400000Y25400000D01*
X111400000Y25400000D02*
X110600000Y24600000D01*
X108500000Y52400000D02*
X108470000Y52370000D01*
X108500000Y27600000D02*
X118800000Y27600000D01*
X108470000Y52370000D02*
X105750000Y52370000D01*
X118200000Y14280000D02*
X120900000Y14280000D01*
X43900000Y15900000D02*
X40105000Y12105000D01*
X40105000Y12105000D02*
X38120000Y12105000D01*
X123160000Y14160000D02*
X127200000Y14160000D01*
X122000000Y13000000D02*
X123160000Y14160000D01*
X115500000Y13000000D02*
X122000000Y13000000D01*
X114900000Y15500000D02*
X128400000Y15500000D01*
X128400000Y15500000D02*
X129600000Y16700000D01*
X129600000Y16700000D02*
X134820000Y16700000D01*
X116600000Y11740000D02*
X113280000Y11740000D01*
X122000000Y20600000D02*
X123360000Y19240000D01*
X123360000Y19240000D02*
X127200000Y19240000D01*
X116600000Y20600000D02*
X122000000Y20600000D01*
X128400000Y24100000D02*
X129725000Y25425000D01*
X115949500Y14300000D02*
X115929500Y14280000D01*
X129725000Y25425000D02*
X134720000Y25425000D01*
X115949500Y24100000D02*
X128400000Y24100000D01*
X115929500Y14280000D02*
X113280000Y14280000D01*
X113280000Y16820000D02*
X115380000Y16820000D01*
X123935000Y24800000D02*
X127100000Y27965000D01*
X115400000Y24800000D02*
X123935000Y24800000D01*
X115380000Y16820000D02*
X115400000Y16800000D01*
X128300000Y29300000D02*
X129505000Y30505000D01*
X129505000Y30505000D02*
X134720000Y30505000D01*
X114800000Y28200000D02*
X125250000Y28200000D01*
X126350000Y29300000D02*
X128300000Y29300000D01*
X114800000Y19360000D02*
X113280000Y19360000D01*
X125250000Y28200000D02*
X126350000Y29300000D01*
X129720000Y11620000D02*
X128500000Y10400000D01*
X134820000Y11620000D02*
X129720000Y11620000D01*
X125400000Y10400000D02*
X123100000Y8100000D01*
X123100000Y8100000D02*
X123100000Y6320000D01*
X128500000Y10400000D02*
X125400000Y10400000D01*
X123100000Y6320000D02*
X120900000Y4120000D01*
X113300000Y30800000D02*
X124855000Y30800000D01*
X124855000Y30800000D02*
X127100000Y33045000D01*
X152010000Y59230000D02*
X154550000Y59230000D01*
X4250000Y57330000D02*
X6790000Y57330000D01*
X102175000Y112605000D02*
X102200000Y112580000D01*
X98215000Y112580000D02*
X98190000Y112605000D01*
X98190000Y112605000D02*
X102175000Y112605000D01*
X125370000Y112610000D02*
X125400000Y112580000D01*
X121220000Y112580000D02*
X121190000Y112610000D01*
X121190000Y112610000D02*
X125370000Y112610000D01*
M02*
